<?xml version="1.0" encoding="UTF-8" standalone="no"?>
<svg
   xmlns:dc="http://purl.org/dc/elements/1.1/"
   xmlns:cc="http://creativecommons.org/ns#"
   xmlns:rdf="http://www.w3.org/1999/02/22-rdf-syntax-ns#"
   xmlns:svg="http://www.w3.org/2000/svg"
   xmlns="http://www.w3.org/2000/svg"
   xmlns:sodipodi="http://sodipodi.sourceforge.net/DTD/sodipodi-0.dtd"
   xmlns:inkscape="http://www.inkscape.org/namespaces/inkscape"
   version="1.1"
   id="svg2"
   xml:space="preserve"
   width="400"
   height="400"
   viewBox="0 0 4946.6665 4946.6665"
   sodipodi:docname="20943705.eps"><metadata
     id="metadata8"><rdf:RDF><cc:Work
         rdf:about=""><dc:format>image/svg+xml</dc:format><dc:type
           rdf:resource="http://purl.org/dc/dcmitype/StillImage" /></cc:Work></rdf:RDF></metadata><defs
     id="defs6"><clipPath
       clipPathUnits="userSpaceOnUse"
       id="clipPath22"><path
         d="M 31394,13790 C 28733.1,7524.6 21645,4014.7 15498.2,4961.5 14498,5115.6 11756,5574.5 9328.22,7739.5 4654.67,11907.4 3655.2,20160.3 7425.21,25976.3 c 2743.89,4233.1 7662.69,6632.6 12336.39,6512.6 1006.7,-25.9 4865,-185.2 8255.6,-2981.1 498.1,-410.7 1596.5,-1386.5 2586.5,-2934.6 2324.6,-3635.3 2524.4,-8700 790.3,-12783.2 z"
         id="path20" /></clipPath><linearGradient
       x1="0"
       y1="0"
       x2="1"
       y2="0"
       gradientUnits="userSpaceOnUse"
       gradientTransform="matrix(-20588.8,18015.2,18015.2,20588.8,34893,4433.9)"
       spreadMethod="pad"
       id="linearGradient28"><stop
         style="stop-opacity:1;stop-color:#dae3fe"
         offset="0"
         id="stop24" /><stop
         style="stop-opacity:1;stop-color:#e9effd"
         offset="1"
         id="stop26" /></linearGradient><clipPath
       clipPathUnits="userSpaceOnUse"
       id="clipPath74"><path
         d="m 16059.4,10274 c -1982.2,437.1 -489,3377.6 -418.6,3491.4 L 12088.6,12518 c 0,0 -317.2,-1709.4 1893.3,-3282.6 559.2,-398 1125.1,-569.6 1658.5,-604.6 -36.4,686.2 166.8,1234.8 419,1643.2 z"
         id="path72" /></clipPath><linearGradient
       x1="0"
       y1="0"
       x2="1"
       y2="0"
       gradientUnits="userSpaceOnUse"
       gradientTransform="matrix(-2009.11,6701.27,6701.27,2009.11,17630.3,251.699)"
       spreadMethod="pad"
       id="linearGradient80"><stop
         style="stop-opacity:1;stop-color:#4f52ff"
         offset="0"
         id="stop76" /><stop
         style="stop-opacity:1;stop-color:#4042e2"
         offset="1"
         id="stop78" /></linearGradient><clipPath
       clipPathUnits="userSpaceOnUse"
       id="clipPath90"><path
         d="m 20094.1,10138.7 c -582.5,711.8 -1548.9,440.8 -1548.9,440.8 -1151.7,-358.7 -1946.9,-424.4 -2485.8,-305.5 -252.2,-408.4 -455.4,-957 -419,-1643.2 1154.3,-75.7 2156.5,490 2609.6,797.7 163.2,110.8 385.9,74.7 501.3,-85.2 117.3,-162.4 217.6,-367.7 142,-532.2 -149.1,-324.4 214,-544.3 278.7,-429.7 64.7,114.6 108,891 108,891 0,0 562.1,-1016.1 783,-1407.9 220.8,-391.8 694,-197.5 694,-197.5 0,0 -80.5,1759.9 -662.9,2471.7 z"
         id="path88" /></clipPath><linearGradient
       x1="0"
       y1="0"
       x2="1"
       y2="0"
       gradientUnits="userSpaceOnUse"
       gradientTransform="matrix(5137.03,-1461.85,-1461.85,-5137.03,15887.6,10069.4)"
       spreadMethod="pad"
       id="linearGradient96"><stop
         style="stop-opacity:1;stop-color:#febbba"
         offset="0"
         id="stop92" /><stop
         style="stop-opacity:1;stop-color:#ff928e"
         offset="1"
         id="stop94" /></linearGradient><clipPath
       clipPathUnits="userSpaceOnUse"
       id="clipPath106"><path
         d="m 8152.79,17743.5 c 0,0 2494.11,1964.8 9035.71,-829.9 0,0 707.5,-780.4 466.5,-1731.4 -241.1,-951 -3647.8,-6242.3 -3631.4,-8615.4 0,0 -2461.4,-1686 -5893.99,-417.7 0,0 -1545.03,6163.1 23.18,11594.4 z"
         id="path104" /></clipPath><linearGradient
       x1="0"
       y1="0"
       x2="1"
       y2="0"
       gradientUnits="userSpaceOnUse"
       gradientTransform="matrix(-9052.92,-11770.9,-11770.9,9052.92,15338,17680.9)"
       spreadMethod="pad"
       id="linearGradient112"><stop
         style="stop-opacity:1;stop-color:#4f52ff"
         offset="0"
         id="stop108" /><stop
         style="stop-opacity:1;stop-color:#4042e2"
         offset="1"
         id="stop110" /></linearGradient><clipPath
       clipPathUnits="userSpaceOnUse"
       id="clipPath122"><path
         d="m 13445,20400 -895,-2097.4 c -88.8,-208.2 -50.7,-450.2 102.4,-617.1 309.2,-337.2 936.6,-776 1929.9,-397.2 295.5,112.6 509.6,374 561.3,686 l 380.7,2298.6 z"
         id="path120" /></clipPath><linearGradient
       x1="0"
       y1="0"
       x2="1"
       y2="0"
       gradientUnits="userSpaceOnUse"
       gradientTransform="matrix(4285.95,5692.27,5692.27,-4285.95,10370.7,13892.2)"
       spreadMethod="pad"
       id="linearGradient128"><stop
         style="stop-opacity:1;stop-color:#febbba"
         offset="0"
         id="stop124" /><stop
         style="stop-opacity:1;stop-color:#ff928e"
         offset="1"
         id="stop126" /></linearGradient><clipPath
       clipPathUnits="userSpaceOnUse"
       id="clipPath138"><path
         d="m 8091.96,9871.8 c -721.94,1240.2 1725.21,5199.7 1725.21,5199.7 l -1664.38,2672 c 0,0 -5771.91,-6893.7 -2810.45,-10198.4 424.54,-473.7 886.56,-757.1 1366.44,-896.2 119.84,1726.3 830.97,2711.3 1383.18,3222.9 z"
         id="path136" /></clipPath><linearGradient
       x1="0"
       y1="0"
       x2="1"
       y2="0"
       gradientUnits="userSpaceOnUse"
       gradientTransform="matrix(-9052.9,-11770.9,-11770.9,9052.9,13017,19466)"
       spreadMethod="pad"
       id="linearGradient144"><stop
         style="stop-opacity:1;stop-color:#4f52ff"
         offset="0"
         id="stop140" /><stop
         style="stop-opacity:1;stop-color:#4042e2"
         offset="1"
         id="stop142" /></linearGradient><clipPath
       clipPathUnits="userSpaceOnUse"
       id="clipPath154"><path
         d="m 8032.29,9873.4 c -35.29,-10.4 -74.45,4 -93.81,37.3 -738.19,1268 1625.45,5120.5 1726.37,5283.9 23.71,38.3 74.07,50.4 112.73,26.6 38.47,-23.8 50.35,-74.3 26.65,-112.7 -24.26,-39.2 -2413.32,-3931.7 -1724.19,-5115.4 22.74,-39.1 9.49,-89.2 -29.61,-112 -5.78,-3.3 -11.91,-5.9 -18.14,-7.7 z"
         id="path152" /></clipPath><linearGradient
       x1="0"
       y1="0"
       x2="1"
       y2="0"
       gradientUnits="userSpaceOnUse"
       gradientTransform="matrix(-4799.35,-2767.99,-2767.99,4799.35,13861.4,15429.4)"
       spreadMethod="pad"
       id="linearGradient160"><stop
         style="stop-opacity:1;stop-color:#09005d"
         offset="0"
         id="stop156" /><stop
         style="stop-opacity:1;stop-color:#1a0f91"
         offset="1"
         id="stop158" /></linearGradient><clipPath
       clipPathUnits="userSpaceOnUse"
       id="clipPath170"><path
         d="m 13895,10008.4 c -442.9,-122.8 -854.9,-343 -1299.9,-456.3 -494,-125.7 -982.5,-273.5 -1480.1,-385.5 -774,-174.3 -1792.45,-374.1 -2472.24,157.9 -57.34,44.9 -518.31,566.1 -550.8,547.3 -1234.32,-713.1 -1474.35,-2379.5 -1474.35,-3188 2250.41,-1230.6 5789.59,1165.6 6742.99,1865.9 156.9,115.2 351,165.1 543.8,138.6 389.9,-53.4 1061.9,-125.3 1416.2,-45.6 518.4,116.5 1397.2,-1680.2 2207.4,-1052.1 0,0 -946.6,3162.6 -3633,2417.8 z"
         id="path168" /></clipPath><linearGradient
       x1="0"
       y1="0"
       x2="1"
       y2="0"
       gradientUnits="userSpaceOnUse"
       gradientTransform="matrix(-11927.2,-24445,-24445,11927.2,12651.1,8885.5)"
       spreadMethod="pad"
       id="linearGradient176"><stop
         style="stop-opacity:1;stop-color:#febbba"
         offset="0"
         id="stop172" /><stop
         style="stop-opacity:1;stop-color:#ff928e"
         offset="1"
         id="stop174" /></linearGradient><clipPath
       clipPathUnits="userSpaceOnUse"
       id="clipPath186"><path
         d="m 16345.5,23364.4 c 0,0 565.2,-1830.4 514,-2752.3 -51.1,-921.9 80,-1538.5 -1000,-1604.8 -1080,-66.3 -1913.6,560.9 -2295.2,1527.5 0,0 -600.7,1490.8 -366.5,2047.8 234.1,557 3147.7,781.8 3147.7,781.8 z"
         id="path184" /></clipPath><linearGradient
       x1="0"
       y1="0"
       x2="1"
       y2="0"
       gradientUnits="userSpaceOnUse"
       gradientTransform="matrix(-4714.93,-2839.08,-2839.08,4714.93,16333.4,21810)"
       spreadMethod="pad"
       id="linearGradient192"><stop
         style="stop-opacity:1;stop-color:#febbba"
         offset="0"
         id="stop188" /><stop
         style="stop-opacity:1;stop-color:#ff928e"
         offset="1"
         id="stop190" /></linearGradient><clipPath
       clipPathUnits="userSpaceOnUse"
       id="clipPath202"><path
         d="m 13999.5,21150.6 133.9,-14.9 c 0,0 -425.6,1193.4 81.4,1338.2 507.1,144.8 2471.4,322.2 2961.8,957.5 472.7,612.4 211.1,1500.8 -295.4,1797.7 -32.1,18.8 -73.6,7.4 -94.5,-23.4 l -53.5,-78.6 c -36.6,-53.8 -120.1,-35.7 -131.2,28.4 v 0 c -10.5,60.9 -88.5,82.6 -126.8,34.2 -149.6,-189.7 -530,-482.8 -1470.2,-550.1 -1334,-95.4 -2257.2,-528 -2379.2,-1429 -7.7,-57.1 -72.4,-81.8 -118,-46.6 -89.9,69.6 -241.3,114.4 -467,-36.1 -392.6,-261.8 -333,-1061 381.9,-1792.8 34,-34.8 27.2,-93.1 -16.2,-115 -153,-76.9 -390.3,-274.1 127.8,-630.1 530,-364.1 867.3,-368.5 996.7,-350.3 34.9,4.9 61.1,33.2 62.8,68.3 l 39.8,806.1 c 2.1,41.7 38.9,73 80.4,68.4 z"
         id="path200" /></clipPath><linearGradient
       x1="0"
       y1="0"
       x2="1"
       y2="0"
       gradientUnits="userSpaceOnUse"
       gradientTransform="matrix(3368.58,-5503.68,-5503.68,-3368.58,13574.3,24774.4)"
       spreadMethod="pad"
       id="linearGradient208"><stop
         style="stop-opacity:1;stop-color:#09005d"
         offset="0"
         id="stop204" /><stop
         style="stop-opacity:1;stop-color:#1a0f91"
         offset="1"
         id="stop206" /></linearGradient><clipPath
       clipPathUnits="userSpaceOnUse"
       id="clipPath218"><path
         d="m 14013.7,20979.5 c 0,0 -165.5,1147.4 -700.4,890.5 -534.8,-256.9 120.1,-1278.3 517.4,-1364.9 z"
         id="path216" /></clipPath><linearGradient
       x1="0"
       y1="0"
       x2="1"
       y2="0"
       gradientUnits="userSpaceOnUse"
       gradientTransform="matrix(-4714.93,-2839.08,-2839.08,4714.93,15873.1,22574.3)"
       spreadMethod="pad"
       id="linearGradient224"><stop
         style="stop-opacity:1;stop-color:#febbba"
         offset="0"
         id="stop220" /><stop
         style="stop-opacity:1;stop-color:#ff928e"
         offset="1"
         id="stop222" /></linearGradient><clipPath
       clipPathUnits="userSpaceOnUse"
       id="clipPath234"><path
         d="m 12258.3,6531.7 c 6.9,-0.3 13.9,-0.3 20.9,-0.2 l 9081.7,140.6 c 224.5,3.4 402.9,178.9 398.5,392.1 -4.4,213.2 -190.7,386.7 -414.5,379.6 l -9081.7,-140.5 c -224.5,-3.4 -402.9,-179 -398.5,-392.1 4.3,-206.5 178.6,-372.5 393.6,-379.5 z"
         id="path232" /></clipPath><linearGradient
       x1="0"
       y1="0"
       x2="1"
       y2="0"
       gradientUnits="userSpaceOnUse"
       gradientTransform="matrix(7253.41,-2140.65,2230.71,6878.5,10672.6,8800.2)"
       spreadMethod="pad"
       id="linearGradient240"><stop
         style="stop-opacity:1;stop-color:#09005d"
         offset="0"
         id="stop236" /><stop
         style="stop-opacity:1;stop-color:#1a0f91"
         offset="1"
         id="stop238" /></linearGradient><clipPath
       clipPathUnits="userSpaceOnUse"
       id="clipPath250"><path
         d="m 15793.3,19827.6 c -1618.1,-137.2 -2941.9,1129.8 -2951.2,1148.8 v 285.6 c 8.9,-18.2 1403.8,-1426.3 2941.9,-1295.9 z"
         id="path248" /></clipPath><linearGradient
       x1="0"
       y1="0"
       x2="1"
       y2="0"
       gradientUnits="userSpaceOnUse"
       gradientTransform="matrix(-3415.37,-4598.47,-4598.47,3415.37,15634.2,22317.3)"
       spreadMethod="pad"
       id="linearGradient256"><stop
         style="stop-opacity:1;stop-color:#4f52ff"
         offset="0"
         id="stop252" /><stop
         style="stop-opacity:1;stop-color:#4042e2"
         offset="1"
         id="stop254" /></linearGradient><clipPath
       clipPathUnits="userSpaceOnUse"
       id="clipPath266"><path
         d="m 16452.9,19897.8 c 0,-107.7 -77.7,-194.9 -173.6,-194.9 h -463 c -95.9,0 -173.7,87.2 -173.7,194.9 v 0 c 0,107.7 77.8,195 173.7,195 h 463 c 95.9,0 173.6,-87.3 173.6,-195 z"
         id="path264" /></clipPath><linearGradient
       x1="0"
       y1="0"
       x2="1"
       y2="0"
       gradientUnits="userSpaceOnUse"
       gradientTransform="matrix(-2031.36,-2656.39,-2656.39,2031.36,16969.5,21103.2)"
       spreadMethod="pad"
       id="linearGradient272"><stop
         style="stop-opacity:1;stop-color:#4f52ff"
         offset="0"
         id="stop268" /><stop
         style="stop-opacity:1;stop-color:#4042e2"
         offset="1"
         id="stop270" /></linearGradient><clipPath
       clipPathUnits="userSpaceOnUse"
       id="clipPath282"><path
         d="m 13668.8,22698.8 c 0,0 -369.6,1971.7 1909.8,1982.7 31.5,0.2 36.8,45.4 6,52.5 -624.4,143.9 -2436.8,357 -2464.1,-2009.1 347.3,-125 548.3,-26.1 548.3,-26.1 z"
         id="path280" /></clipPath><linearGradient
       x1="0"
       y1="0"
       x2="1"
       y2="0"
       gradientUnits="userSpaceOnUse"
       gradientTransform="matrix(-14496.3,-5024.59,-5024.59,14496.3,19241.6,25537.9)"
       spreadMethod="pad"
       id="linearGradient288"><stop
         style="stop-opacity:1;stop-color:#4f52ff"
         offset="0"
         id="stop284" /><stop
         style="stop-opacity:1;stop-color:#4042e2"
         offset="1"
         id="stop286" /></linearGradient><clipPath
       clipPathUnits="userSpaceOnUse"
       id="clipPath298"><path
         d="m 13251.1,22939.3 c -889.5,-180.5 -780.2,-1305.4 -780.2,-1305.4 -64.1,-816.3 174.2,-1221 479.5,-1413.8 208.6,-131.7 471.1,-143.9 691.4,-32.8 220.2,111.1 366,329.6 384.2,575.6 16.4,222.2 35.2,433.4 51.7,508.4 40,181.7 62.9,1848.6 -826.6,1668 z"
         id="path296" /></clipPath><linearGradient
       x1="0"
       y1="0"
       x2="1"
       y2="0"
       gradientUnits="userSpaceOnUse"
       gradientTransform="matrix(-1674.19,-2634.06,-2634.06,1674.19,14895.2,24011.6)"
       spreadMethod="pad"
       id="linearGradient304"><stop
         style="stop-opacity:1;stop-color:#4f52ff"
         offset="0"
         id="stop300" /><stop
         style="stop-opacity:1;stop-color:#4042e2"
         offset="1"
         id="stop302" /></linearGradient><clipPath
       clipPathUnits="userSpaceOnUse"
       id="clipPath314"><path
         d="m 13332.8,22654.9 c -184.7,32.1 -366.8,-66 -441.1,-238.1 -531.6,-1231.5 121.1,-2032.6 441.6,-2049.4 337.7,-17.6 330.9,1607.3 259.2,2023.8 -30.1,174.6 -141,243.1 -259.7,263.7 z"
         id="path312" /></clipPath><linearGradient
       x1="0"
       y1="0"
       x2="1"
       y2="0"
       gradientUnits="userSpaceOnUse"
       gradientTransform="matrix(-2991.23,6004.78,6004.78,2991.23,13323.8,21413.1)"
       spreadMethod="pad"
       id="linearGradient320"><stop
         style="stop-opacity:1;stop-color:#4f52ff"
         offset="0"
         id="stop316" /><stop
         style="stop-opacity:1;stop-color:#4042e2"
         offset="1"
         id="stop318" /></linearGradient><clipPath
       clipPathUnits="userSpaceOnUse"
       id="clipPath330"><path
         d="m 4972.33,6221.2 c -15.15,112.1 5.48,228.1 56.25,316.3 50.78,88.1 126.39,139.1 206.18,139.1 H 32261.7 c 104.9,0 202.6,-76.5 259.1,-203.1 56.5,-126.6 64.1,-285.7 20.1,-422.1 L 32248,5143.7 c -67,-207.9 -212.4,-341 -372.3,-341 H 5420.21 c -148.75,0 -276.61,151.1 -304.86,360.2 z"
         id="path328" /></clipPath><linearGradient
       x1="0"
       y1="0"
       x2="1"
       y2="0"
       gradientUnits="userSpaceOnUse"
       gradientTransform="matrix(387.363,8521.87,8521.87,-387.363,18575.8,2028.8)"
       spreadMethod="pad"
       id="linearGradient336"><stop
         style="stop-opacity:1;stop-color:#09005d"
         offset="0"
         id="stop332" /><stop
         style="stop-opacity:1;stop-color:#1a0f91"
         offset="1"
         id="stop334" /></linearGradient><clipPath
       clipPathUnits="userSpaceOnUse"
       id="clipPath348"><path
         d="m 19263.9,16990.6 c -152.6,-1247.4 -839.4,-6315.6 -1036,-7763.7 -27.6,-203.7 134.1,-382.8 339.6,-376.9 l 11650.1,333.4 c 152.5,4.3 282.5,111.7 315.6,260.6 l 1812.3,8161.6 c 47.9,215.8 -123.9,417.5 -344.6,404.6 l -12426,-727.9 c -160.6,-9.4 -291.4,-132 -311,-291.7 z"
         id="path346" /></clipPath><linearGradient
       x1="0"
       y1="0"
       x2="1"
       y2="0"
       gradientUnits="userSpaceOnUse"
       gradientTransform="matrix(2915.44,-7455.18,-7455.18,-2915.44,24073.1,16539.7)"
       spreadMethod="pad"
       id="linearGradient354"><stop
         style="stop-opacity:1;stop-color:#09005d"
         offset="0"
         id="stop350" /><stop
         style="stop-opacity:1;stop-color:#1a0f91"
         offset="1"
         id="stop352" /></linearGradient><clipPath
       clipPathUnits="userSpaceOnUse"
       id="clipPath364"><path
         d="M 23946.9,11872.4 22225,6985.3 l 4003.7,-84.8 333.4,4942.6 c 15.6,231.9 -176.7,424.5 -408.7,409.1 L 24283.7,12128 c -153.3,-10.2 -285.8,-110.7 -336.8,-255.6 z"
         id="path362" /></clipPath><linearGradient
       x1="0"
       y1="0"
       x2="1"
       y2="0"
       gradientUnits="userSpaceOnUse"
       gradientTransform="matrix(1665.97,-10245.7,-10245.7,-1665.97,23722,13575.9)"
       spreadMethod="pad"
       id="linearGradient370"><stop
         style="stop-opacity:1;stop-color:#09005d"
         offset="0"
         id="stop366" /><stop
         style="stop-opacity:1;stop-color:#1a0f91"
         offset="1"
         id="stop368" /></linearGradient><clipPath
       clipPathUnits="userSpaceOnUse"
       id="clipPath382"><path
         d="m 20601.9,6915.7 v 0 c -44.1,-134.5 56,-272.8 197.6,-272.8 h 6270 c 114.8,0 207.9,93.1 207.9,208 v 268.9 c 0,118.3 -98.6,212.8 -216.9,207.7 l -6269.9,-268.9 c -86.6,-3.7 -161.7,-60.6 -188.7,-142.9 z"
         id="path380" /></clipPath><linearGradient
       x1="0"
       y1="0"
       x2="1"
       y2="0"
       gradientUnits="userSpaceOnUse"
       gradientTransform="matrix(4914.59,-3220.86,-3220.86,-4914.59,22972,7616)"
       spreadMethod="pad"
       id="linearGradient388"><stop
         style="stop-opacity:1;stop-color:#09005d"
         offset="0"
         id="stop384" /><stop
         style="stop-opacity:1;stop-color:#1a0f91"
         offset="1"
         id="stop386" /></linearGradient><clipPath
       clipPathUnits="userSpaceOnUse"
       id="clipPath404"><path
         d="m 22806.1,28980.2 v -2513.3 c 0,-298.6 234.6,-544.6 532.9,-558.6 l 3143,-147.6 c 318.8,-15 585.4,239.4 585.4,558.5 v 2661 c 0,308.8 -250.4,559.2 -559.2,559.2 h -3143 c -308.8,0 -559.1,-250.4 -559.1,-559.2 z"
         id="path402" /></clipPath><linearGradient
       x1="0"
       y1="0"
       x2="1"
       y2="0"
       gradientUnits="userSpaceOnUse"
       gradientTransform="matrix(-23608.6,-44102.9,-44102.9,23608.6,26208.2,30024.9)"
       spreadMethod="pad"
       id="linearGradient410"><stop
         style="stop-opacity:1;stop-color:#ff928e"
         offset="0"
         id="stop406" /><stop
         style="stop-opacity:1;stop-color:#fe7062"
         offset="1"
         id="stop408" /></linearGradient><clipPath
       clipPathUnits="userSpaceOnUse"
       id="clipPath440"><path
         d="m 15992.8,31885.8 v -2696 c 0,-320.3 251.7,-584.1 571.7,-599.1 l 3371.4,-158.4 c 341.9,-16.1 627.9,256.8 627.9,599.1 v 2854.4 c 0,331.3 -268.5,599.8 -599.8,599.8 h -3371.4 c -331.2,0 -599.8,-268.5 -599.8,-599.8 z"
         id="path438" /></clipPath><linearGradient
       x1="0"
       y1="0"
       x2="1"
       y2="0"
       gradientUnits="userSpaceOnUse"
       gradientTransform="matrix(-23608.6,-44102.8,-44102.8,23608.6,19864.1,33421)"
       spreadMethod="pad"
       id="linearGradient446"><stop
         style="stop-opacity:1;stop-color:#ff928e"
         offset="0"
         id="stop442" /><stop
         style="stop-opacity:1;stop-color:#fe7062"
         offset="1"
         id="stop444" /></linearGradient><clipPath
       clipPathUnits="userSpaceOnUse"
       id="clipPath464"><path
         d="m 26708.6,23519 v -2371.3 c 0,-281.8 221.4,-513.8 502.8,-527 l 2965.4,-139.3 c 300.8,-14.2 552.4,225.9 552.4,527 V 23519 c 0,291.4 -236.2,527.6 -527.6,527.6 h -2965.4 c -291.4,0 -527.6,-236.2 -527.6,-527.6 z"
         id="path462" /></clipPath><linearGradient
       x1="0"
       y1="0"
       x2="1"
       y2="0"
       gradientUnits="userSpaceOnUse"
       gradientTransform="matrix(-23608.6,-44102.8,-44102.8,23608.6,31389,27251.6)"
       spreadMethod="pad"
       id="linearGradient470"><stop
         style="stop-opacity:1;stop-color:#ff928e"
         offset="0"
         id="stop466" /><stop
         style="stop-opacity:1;stop-color:#fe7062"
         offset="1"
         id="stop468" /></linearGradient><clipPath
       clipPathUnits="userSpaceOnUse"
       id="clipPath486"><path
         d="M 8750.86,30177.5 V 27342 c 0,-336.9 264.72,-614.4 601.25,-630.2 L 12898,26545.2 c 359.7,-16.9 660.5,270.2 660.5,630.2 v 3002.1 c 0,348.4 -282.5,630.9 -630.9,630.9 H 9381.72 c -348.41,0 -630.86,-282.5 -630.86,-630.9 z"
         id="path484" /></clipPath><linearGradient
       x1="0"
       y1="0"
       x2="1"
       y2="0"
       gradientUnits="userSpaceOnUse"
       gradientTransform="matrix(-23608.6,-44102.8,-44102.8,23608.6,15068.6,35988)"
       spreadMethod="pad"
       id="linearGradient492"><stop
         style="stop-opacity:1;stop-color:#ff928e"
         offset="0"
         id="stop488" /><stop
         style="stop-opacity:1;stop-color:#fe7062"
         offset="1"
         id="stop490" /></linearGradient></defs><sodipodi:namedview
     pagecolor="#ffffff"
     bordercolor="#666666"
     borderopacity="1"
     objecttolerance="10"
     gridtolerance="10"
     guidetolerance="10"
     inkscape:pageopacity="0"
     inkscape:pageshadow="2"
     inkscape:window-width="640"
     inkscape:window-height="480"
     id="namedview4" /><g
     id="g10"
     inkscape:groupmode="layer"
     inkscape:label="ink_ext_XXXXXX"
     transform="matrix(1.3333333,0,0,-1.3333333,0,4946.6667)"><g
       id="g12"
       transform="scale(0.1)"><path
         d="M 37100,0 H 0 V 37100 H 37100 V 0"
         style="fill:#ffffff;fill-opacity:1;fill-rule:nonzero;stroke:none"
         id="path14" /><g
         id="g16"><g
           id="g18"
           clip-path="url(#clipPath22)"><path
             d="M 31394,13790 C 28733.1,7524.6 21645,4014.7 15498.2,4961.5 14498,5115.6 11756,5574.5 9328.22,7739.5 4654.67,11907.4 3655.2,20160.3 7425.21,25976.3 c 2743.89,4233.1 7662.69,6632.6 12336.39,6512.6 1006.7,-25.9 4865,-185.2 8255.6,-2981.1 498.1,-410.7 1596.5,-1386.5 2586.5,-2934.6 2324.6,-3635.3 2524.4,-8700 790.3,-12783.2"
             style="fill:url(#linearGradient28);fill-opacity:1;fill-rule:nonzero;stroke:none"
             id="path30" /></g></g><path
         d="m 14831.8,23357.1 c -18.4,1.4 -35.8,11.6 -45.6,28.9 -37.1,65.4 -76.2,130.7 -116.2,194 -16.9,26.7 -8.9,62.1 17.8,78.9 26.7,16.9 62.1,8.9 79,-17.7 41,-64.9 81.1,-131.7 119.1,-198.8 15.5,-27.5 5.9,-62.4 -21.6,-78 -10.3,-5.8 -21.5,-8.1 -32.5,-7.3"
         style="fill:#91b3fa;fill-opacity:1;fill-rule:nonzero;stroke:none"
         id="path32" /><path
         d="m 15283.9,22263.9 c -23.4,1.7 -44.3,17.8 -50.9,41.8 -39.6,143.4 -86.2,286.1 -138.6,424.3 -11.2,29.5 3.7,62.5 33.2,73.8 29.5,11.1 62.7,-3.6 73.9,-33.3 53.6,-141.3 101.3,-287.5 141.9,-434.3 8.4,-30.5 -9.5,-62 -40,-70.4 -6.5,-1.8 -13.1,-2.4 -19.5,-1.9 z m 173.8,-1170.5 c -29,2.1 -52.2,26 -52.9,55.6 -3.7,148.1 -14.5,297.9 -32.1,445.2 -3.7,31.4 18.7,59.9 50.1,63.7 31.5,3.8 59.9,-18.7 63.6,-50.1 18,-150.8 29.1,-304.2 32.9,-455.9 0.7,-31.6 -24.2,-57.9 -55.9,-58.7 -1.9,0 -3.8,0 -5.7,0.2 z m -116.9,-1177.7 c -2.8,0.2 -5.6,0.7 -8.4,1.3 -30.9,7 -50.2,37.6 -43.2,68.5 32.8,144.8 59,292.7 78,439.5 4.1,31.3 32.9,54.4 64.2,49.4 31.3,-4 53.5,-32.7 49.4,-64.1 -19.5,-150.3 -46.3,-301.8 -79.9,-450.1 -6.4,-28 -32.3,-46.5 -60.1,-44.5 z M 14939.2,18803 c -7.3,0.6 -14.6,2.5 -21.6,6.1 -28.2,14.2 -39.5,48.7 -25.2,76.9 67.1,132.3 128.7,269.3 183,407.1 11.6,29.4 44.9,43.7 74.2,32.2 29.5,-11.6 43.9,-44.9 32.3,-74.3 -55.6,-141 -118.6,-281.3 -187.3,-416.8 -10.8,-21.2 -33,-32.9 -55.4,-31.2 z m -659.6,-982 c -11.9,0.8 -23.6,5.4 -33.2,13.8 -23.9,20.7 -26.5,56.8 -5.8,80.7 96.9,111.9 189.8,229.9 276.1,350.6 18.4,25.7 54.1,31.7 79.9,13.3 25.7,-18.5 31.7,-54.2 13.3,-79.9 -88.3,-123.6 -183.5,-244.3 -282.8,-358.9 -12.3,-14.3 -30.1,-20.9 -47.5,-19.6 z m -878.1,-792.3 c -16.6,1.3 -32.4,9.6 -42.7,24.3 -18.1,25.9 -11.8,61.6 14.1,79.7 121.3,85 240,176.7 353,272.8 24,20.4 60.1,17.4 80.7,-6.6 20.5,-24.1 17.5,-60.2 -6.6,-80.7 -115.6,-98.4 -237.2,-192.3 -361.5,-279.3 -11.2,-7.8 -24.3,-11.1 -37,-10.2 z m -1045.4,-553 c -21.4,1.6 -41.1,15.3 -49.2,36.7 -11.3,29.6 3.6,62.7 33.1,73.9 139,52.8 276.7,112.7 409.3,177.9 28.3,13.8 62.7,2.3 76.6,-26.1 14,-28.4 2.3,-62.7 -26.1,-76.7 -135.8,-66.8 -276.8,-128.1 -419.1,-182.1 -8.1,-3.1 -16.4,-4.2 -24.6,-3.6 z m -1148.9,-282 c -26.8,2 -49.2,22.7 -52.5,50.3 -3.8,31.4 18.6,59.9 50,63.7 142.7,17 286.7,40.9 428.1,70.9 l 12.3,2.6 c 30.9,6.5 61.4,-13.2 67.9,-44.1 6.6,-30.9 -13.2,-61.4 -44.1,-67.9 l -12.3,-2.6 c -144.8,-30.8 -292.2,-55.2 -438.3,-72.7 -3.7,-0.4 -7.5,-0.5 -11.1,-0.2 z m -924.2,-21.3 c -86.6,5.4 -175.5,15.4 -261.9,26.5 -31.38,4.1 -53.51,32.8 -49.45,64.2 4.05,31.3 32.95,52.7 64.05,49.4 84.4,-10.9 171.9,-19.3 255.8,-25.9 62.1,-4.6 125.7,-8 189.1,-10.2 32.3,1.3 56.3,-27.5 55.2,-59.1 -1,-31.6 -27.5,-56.4 -59.1,-55.3 -64.9,2.2 -130.1,5.7 -193.7,10.4"
         style="fill:#91b3fa;fill-opacity:1;fill-rule:nonzero;stroke:none"
         id="path34" /><path
         d="m 9303.43,16348.6 c -3.9,0.3 -7.83,1 -11.76,2.1 -73.58,21.4 -147.86,44.8 -220.77,69.7 -29.93,10.2 -45.92,42.7 -35.7,72.7 10.2,30 42.79,46.3 72.67,35.7 71.23,-24.4 143.81,-47.3 215.73,-68.1 30.35,-8.8 47.83,-40.6 39.03,-70.9 -7.67,-26.5 -32.77,-43.2 -59.2,-41.2"
         style="fill:#91b3fa;fill-opacity:1;fill-rule:nonzero;stroke:none"
         id="path36" /><path
         d="m 6363.2,18757.3 c -19.15,1.5 -37.12,12.4 -46.62,30.8 -35.12,67.7 -69.33,137.7 -101.73,208.1 -13.21,28.7 -0.62,62.7 28.1,76 28.82,13.2 62.72,0.5 75.95,-28.1 31.61,-68.8 65.03,-137.2 99.34,-203.3 14.56,-28.1 3.6,-62.6 -24.46,-77.2 -9.77,-5.1 -20.35,-7 -30.58,-6.3"
         style="fill:#91b3fa;fill-opacity:1;fill-rule:nonzero;stroke:none"
         id="path38" /><path
         d="m 11488.6,25722.8 c -2,0.1 -4,0.4 -5.9,0.7 -143.8,25.8 -290.3,45.1 -435.4,57.4 -31.5,2.6 -54.8,30.3 -52.2,61.8 2.7,31.3 30.1,54.6 61.3,52.3 0.2,0 0.4,0 0.6,0 148.6,-12.6 298.6,-32.4 445.9,-58.7 31.1,-5.6 51.8,-35.4 46.2,-66.5 -5.2,-29.1 -31.6,-49.2 -60.5,-47 z m -1604.02,14.6 c -25.83,1.9 -47.93,21.4 -52.22,48.1 -4.99,31.2 16.3,60.6 47.53,65.5 147.51,23.6 297.81,40.6 446.81,50.5 31.3,2 58.8,-21.7 61,-53.3 2.1,-31.5 -21.8,-58.8 -53.4,-60.9 -145.4,-9.8 -292.3,-26.3 -436.38,-49.3 -4.49,-0.7 -8.96,-0.9 -13.34,-0.6 z m -1119.2,-319.3 c -20.78,1.6 -39.95,14.4 -48.56,34.9 -12.26,29.1 1.4,62.7 30.55,75 137.56,57.9 279.52,110.1 421.93,155.1 30.23,9.6 62.31,-7.2 71.83,-37.4 9.55,-30.1 -7.17,-62.3 -37.32,-71.8 -139.07,-44 -277.69,-94.9 -412.01,-151.5 -8.66,-3.6 -17.67,-4.9 -26.42,-4.3 z m -1009.62,-578.5 c -15.94,1.2 -31.28,9 -41.61,22.8 -18.94,25.3 -13.76,61.2 11.57,80.1 119.36,89.3 244.49,174.2 371.94,252.2 26.99,16.5 62.21,8.1 78.73,-18.9 16.52,-26.9 8.06,-62.2 -18.91,-78.7 -124.44,-76.2 -246.63,-159.1 -363.2,-246.3 -11.52,-8.6 -25.22,-12.2 -38.52,-11.2 z m -840.79,-804.7 c -11.32,0.9 -22.5,5.1 -31.96,12.8 -24.46,20.1 -28.05,56.1 -8,80.6 94.51,115.4 195.63,227.8 300.55,334.3 22.16,22.4 58.41,22.7 80.95,0.5 22.53,-22.2 22.77,-58.4 0.57,-81 -102.43,-103.9 -201.21,-213.7 -293.52,-326.4 -12.28,-15 -30.61,-22.1 -48.59,-20.8 z m -624.19,-982.4 c -6.92,0.5 -13.83,2.2 -20.43,5.4 -28.53,13.6 -40.61,47.8 -26.99,76.3 64.39,134.8 135.79,268.1 212.23,396.4 16.15,27.2 51.25,36.2 78.49,19.9 27.16,-16.2 36.06,-51.3 19.85,-78.5 -74.64,-125.2 -144.36,-255.5 -207.22,-387.1 -10.49,-21.9 -33.1,-34.1 -55.93,-32.4 z m -371.31,-1103.3 c -2.45,0.2 -4.92,0.5 -7.38,1 -30.97,6.4 -50.88,36.7 -44.51,67.7 30.15,146.3 67.53,292.9 111.1,435.7 9.22,30.3 41.4,47.2 71.47,38.1 30.24,-9.3 47.3,-41.3 38.06,-71.5 -42.54,-139.5 -79.04,-282.6 -108.48,-425.5 -5.89,-28.5 -31.99,-47.6 -60.26,-45.5 z m -94.72,-1160.5 c -28.61,2.2 -51.68,25.5 -52.86,54.8 -6.06,149.2 -5.2,300.6 2.6,449.7 1.63,31.6 28.56,55.9 60.14,54.2 30.41,-2 55.87,-28.5 54.19,-60.1 -7.6,-145.7 -8.45,-293.5 -2.53,-439.1 1.28,-31.6 -23.27,-58.3 -54.88,-59.6 -2.25,-0.1 -4.46,0 -6.66,0.1 z m 186.73,-1149 c -23.19,1.7 -43.93,17.5 -50.74,41.2 -32.41,112.5 -61.24,227.8 -85.61,342.6 -6.69,31.6 -13.06,63.1 -19.15,94.6 -5.98,31.1 14.37,61.1 45.41,67.1 31.23,6.1 61.07,-14.4 67.06,-45.4 5.91,-30.8 12.16,-61.7 18.68,-92.6 23.82,-112 51.97,-224.6 83.62,-334.6 8.75,-30.3 -8.79,-62.1 -39.15,-70.8 -6.74,-2 -13.51,-2.6 -20.12,-2.1"
         style="fill:#91b3fa;fill-opacity:1;fill-rule:nonzero;stroke:none"
         id="path40" /><path
         d="m 12404.6,25462.7 c -5.6,0.4 -11.2,1.7 -16.8,3.8 -69.5,27.5 -140.9,53.8 -212.2,78 -29.9,10.2 -45.9,42.7 -35.7,72.7 10.2,29.9 42.8,46.2 72.6,35.7 73,-24.9 146.2,-51.7 217.4,-79.9 29.4,-11.6 43.8,-44.8 32.2,-74.3 -9.4,-23.9 -33.1,-37.9 -57.5,-36"
         style="fill:#91b3fa;fill-opacity:1;fill-rule:nonzero;stroke:none"
         id="path42" /><path
         d="m 12423.1,24281.8 c -20.2,14.1 -47.2,13.8 -67.1,-0.8 l -568.5,-415 c -305.5,121.4 -632.5,194.9 -970.3,212.7 l -342.9,614.1 c -12.1,21.6 -36.4,33.1 -60.7,28.7 l -831.04,-148.8 c -24.29,-4.4 -43.14,-23.7 -46.95,-48 l -108.45,-695 c -310.58,-134 -591.76,-316.4 -836.13,-536.3 l -677.19,191.9 c -23.74,6.7 -49.12,-2.4 -63.21,-22.6 l -482.36,-692.9 c -14.11,-20.3 -13.8,-47.2 0.74,-67.1 l 415,-568.5 c -121.33,-305.5 -194.81,-632.5 -212.68,-970.3 l -614.11,-343 c -21.55,-12 -33.08,-36.3 -28.73,-60.6 l 148.86,-831.1 c 4.35,-24.3 23.63,-43.1 48.01,-46.9 l 694.97,-108.5 c 134.02,-310.5 316.44,-591.7 536.29,-836.1 l -191.88,-677.2 c -6.71,-23.7 2.36,-49.1 22.61,-63.2 l 692.87,-482.3 c 20.25,-14.2 47.22,-13.8 67.15,0.7 l 568.46,415 c 305.48,-121.3 632.47,-194.8 970.27,-212.7 l 343,-614.1 c 12,-21.5 36.4,-33.1 60.7,-28.7 l 831,148.8 c 24.3,4.4 43.1,23.7 46.9,48 l 108.5,695 c 310.6,134 591.8,316.5 836.1,536.3 l 677.2,-191.9 c 23.7,-6.7 49.1,2.4 63.2,22.6 l 482.4,692.9 c 14.1,20.3 13.8,47.2 -0.8,67.1 l -415,568.5 c 121.4,305.5 194.9,632.5 212.7,970.3 l 614.2,343 c 21.5,12 33,36.4 28.7,60.7 l -148.9,831 c -4.3,24.3 -23.6,43.1 -48,46.9 l -695,108.5 c -134,310.6 -316.4,591.7 -536.3,836.1 l 191.9,677.2 c 6.7,23.7 -2.3,49.1 -22.6,63.2 l -692.9,482.4"
         style="fill:#91b3fa;fill-opacity:1;fill-rule:nonzero;stroke:none"
         id="path44" /><path
         d="m 10700.2,21660.7 c -109.2,8.1 -219.3,-11.1 -321.9,-57.5 -333.5,-150.7 -482.2,-544.7 -331.5,-878.2 73.1,-161.6 204.6,-285 370.5,-347.7 165.9,-62.6 346.2,-56.9 507.8,16.2 161.5,73 285,204.6 347.6,370.5 62.6,165.9 56.9,346.2 -16.2,507.8 -73,161.5 -204.6,285 -370.5,347.6 -60.5,22.8 -123,36.6 -185.8,41.3 z m -109.6,-1496 c -79.1,5.9 -157.7,23.2 -234,51.9 -208.7,78.9 -374.35,234.3 -466.25,437.6 -91.94,203.4 -99.19,430.4 -20.38,639.2 78.79,208.8 234.23,374.4 437.53,466.3 203.4,91.9 430.4,99.1 639.2,20.4 208.8,-78.8 374.4,-234.2 466.3,-437.6 92,-203.4 99.2,-430.4 20.4,-639.2 -78.8,-208.8 -234.2,-374.3 -437.6,-466.3 -129.1,-58.4 -267.8,-82.6 -405.2,-72.3"
         style="fill:#bdd0fb;fill-opacity:1;fill-rule:nonzero;stroke:none"
         id="path46" /><path
         d="m 10480.9,18865.1 c -374,27.9 -735.27,155.4 -1051.22,375.4 -465.39,324 -776.76,809.8 -876.76,1368 -32.13,179.3 -41.18,359.2 -27.96,536.3 27.95,374 155.43,735.1 375.33,1051 323.99,465.4 809.84,776.8 1368.01,876.8 14.6,2.6 29.2,5.1 43.8,7.3 120.1,19 241.5,27.7 362,26.1 15,-0.2 30,-0.6 45,-1.1 l -6,-171.7 c -137.8,4.9 -277.3,-5.1 -414.5,-29.7 v 0 c -485.72,-87 -911.84,-348.2 -1208.55,-738.7 -16.69,-22 -32.97,-44.4 -48.79,-67.1 -202.12,-290.4 -319.27,-622.3 -344.96,-966 -12.18,-162.8 -3.83,-328.1 25.69,-492.9 91.89,-513 378.08,-959.6 805.85,-1257.4 427.73,-297.8 945.86,-411.2 1458.86,-319.2 894.2,160.1 1537.5,909.2 1602.1,1775.9 11.9,159.9 4.1,323.8 -25.4,488.8 -62.4,348.1 -217.6,672.3 -448.9,937.4 l 129.5,112.9 c 251.7,-288.5 420.6,-641.2 488.4,-1020 32.2,-179.5 40.7,-357.8 27.7,-531.8 -70.3,-943.1 -770.3,-1758 -1743.1,-1932.3 -179.2,-32.1 -359.1,-41.2 -536.1,-28"
         style="fill:#bdd0fb;fill-opacity:1;fill-rule:nonzero;stroke:none"
         id="path48" /><path
         d="m 21055.6,25578.3 c -25.7,1.9 -49.8,16.8 -62.3,41.5 -45,88.3 -94.5,175.4 -147.3,258.9 -22.5,35.5 -11.9,82.6 23.7,105.1 35.6,22.4 82.7,11.8 105.2,-23.7 55.3,-87.4 107.2,-178.7 154.3,-271.2 19.1,-37.6 4.1,-83.4 -33.4,-102.5 -12.9,-6.6 -26.7,-9.1 -40.2,-8.1"
         style="fill:#91b3fa;fill-opacity:1;fill-rule:nonzero;stroke:none"
         id="path50" /><path
         d="m 21413.8,24009.6 c -40.1,3 -71.4,36.9 -70.5,77.6 4.2,200.6 -10.6,403.3 -44.1,602.3 -7,41.6 21,80.9 62.5,87.8 41.5,7.4 80.9,-20.9 87.9,-62.4 35.1,-208.5 50.6,-420.8 46.2,-630.8 -0.9,-42.2 -35.8,-75.5 -77.8,-74.7 -1.5,0 -2.8,0.1 -4.2,0.2 z m -427.2,-1550.8 c -10.9,0.8 -21.7,3.9 -31.9,9.7 -36.6,20.7 -49.5,67.2 -28.7,103.9 99.2,175.3 182.4,360.7 247.1,551 13.6,39.9 56.7,61.4 96.8,47.6 39.9,-13.6 61.2,-56.8 47.6,-96.7 -67.8,-199.3 -154.9,-393.5 -258.9,-577.1 -15,-26.5 -43.5,-40.5 -72,-38.4 z m -1108.9,-1164.9 c -23.2,1.7 -45.4,14 -58.8,35.3 -22.5,35.6 -11.9,82.7 23.7,105.2 169.9,107.2 330.6,231.4 477.7,368.9 30.7,28.8 78.9,27.2 107.8,-3.7 28.7,-30.7 27.1,-79 -3.7,-107.7 -154,-144.1 -322.4,-274 -500.4,-386.5 -14.3,-9.1 -30.6,-12.7 -46.3,-11.5 z m -1528.9,-500.4 c -37.1,2.8 -67.6,32.4 -70.3,70.6 -3,42 28.6,78.5 70.6,81.5 147.6,10.5 296.6,31.6 442.9,62.7 51.6,10.9 102.6,23.1 153,36.3 40.8,10.8 82.5,-13.6 93.2,-54.4 10.7,-40.7 -13.7,-82.4 -54.4,-93.1 -52.8,-13.9 -106.1,-26.5 -160.2,-38 -153.1,-32.5 -309.1,-54.6 -463.6,-65.6 -3.8,-0.3 -7.5,-0.3 -11.2,0"
         style="fill:#91b3fa;fill-opacity:1;fill-rule:nonzero;stroke:none"
         id="path52" /><path
         d="m 17346.8,20876.5 c -4.1,0.3 -8.2,0.9 -12.3,1.9 -100.9,24.3 -201.7,53.6 -299.5,87.2 -39.8,13.6 -61.1,56.9 -47.4,96.8 13.6,39.8 56.9,61 96.8,47.5 93.4,-32 189.5,-60 285.8,-83.2 41,-9.9 66.2,-51.1 56.3,-92 -8.9,-36.8 -43.1,-60.9 -79.7,-58.2"
         style="fill:#91b3fa;fill-opacity:1;fill-rule:nonzero;stroke:none"
         id="path54" /><path
         d="m 15192,22562.3 c -25.5,1.9 -49.4,16.5 -62.1,40.9 -47.5,91.7 -91.5,187.1 -130.6,283.5 -15.8,38.9 3,83.5 42,99.3 39,15.8 83.5,-3 99.3,-42.1 37.3,-91.9 79.3,-182.9 124.7,-270.5 19.4,-37.3 4.8,-83.3 -32.6,-102.7 -13,-6.8 -27.1,-9.4 -40.7,-8.4"
         style="fill:#91b3fa;fill-opacity:1;fill-rule:nonzero;stroke:none"
         id="path56" /><path
         d="m 17452.9,27310.3 c -33.1,2.4 -61.9,26.5 -69,60.6 -8.5,41.2 18.1,81.6 59.4,90.1 203.7,42 411.6,65.3 617.9,69.3 43,2.5 76.9,-32.5 77.7,-74.7 0.8,-42.1 -32.6,-76.9 -74.7,-77.7 -197,-3.9 -395.5,-26.2 -590.2,-66.3 -7.1,-1.5 -14.2,-1.8 -21.1,-1.3 z m -1427.8,-681 c -20,1.5 -39.4,10.9 -53.2,27.6 -26.8,32.5 -22.1,80.6 10.4,107.3 159.9,131.6 333.1,249.1 514.8,349.1 36.9,20.2 83.2,6.7 103.6,-30.1 20.2,-36.9 6.8,-83.2 -30.1,-103.6 -173.4,-95.4 -338.7,-207.5 -491.4,-333.1 -15.7,-13 -35.2,-18.6 -54.1,-17.2 z m -945.5,-1268.5 c -8,0.6 -16.1,2.5 -24,5.9 -38.8,16.3 -56.9,61 -40.6,99.8 80.5,190.8 179.2,375.1 293.3,548.2 23.2,35.1 70.5,44.8 105.7,21.6 35.1,-23.1 44.8,-70.4 21.6,-105.6 -108.9,-165.2 -203.2,-341.4 -280.1,-523.5 -13,-30.9 -44.1,-48.7 -75.9,-46.4 z m -246.1,-1563 c -36.6,2.8 -66.9,31.7 -70.2,69.4 -15.8,180.2 -17,363 -3.6,543.3 2,26.4 4.3,52.7 6.9,79 4.2,41.8 42.5,69.9 83.4,68.3 41.9,-4.1 72.5,-41.5 68.3,-83.4 -2.5,-25 -4.6,-50 -6.5,-75.2 -12.9,-172.1 -11.7,-346.6 3.4,-518.7 3.7,-41.9 -27.3,-78.9 -69.3,-82.6 -4.2,-0.4 -8.4,-0.4 -12.4,-0.1"
         style="fill:#91b3fa;fill-opacity:1;fill-rule:nonzero;stroke:none"
         id="path58" /><path
         d="m 19324.9,27149.4 c -7.5,0.5 -15,2.2 -22.4,5.1 -92,36.4 -186.7,68.8 -281.6,96.4 -40.4,11.7 -63.7,54.1 -51.9,94.5 11.7,40.4 53.9,63.8 94.5,51.9 99.4,-28.9 198.7,-62.8 295.1,-100.9 39.2,-15.5 58.4,-59.8 42.9,-99 -12.6,-31.8 -44.2,-50.4 -76.6,-48"
         style="fill:#91b3fa;fill-opacity:1;fill-rule:nonzero;stroke:none"
         id="path60" /><path
         d="m 19340.3,26378.5 c -13.9,9.7 -32.3,9.5 -45.9,-0.5 l -388.9,-283.9 c -209,83 -432.7,133.3 -663.8,145.5 l -234.6,420.1 c -8.2,14.8 -24.9,22.7 -41.5,19.7 l -568.5,-101.8 c -16.6,-3 -29.5,-16.2 -32.1,-32.9 l -74.2,-475.4 c -212.5,-91.7 -404.9,-216.5 -572,-366.9 l -463.3,131.3 c -16.2,4.6 -33.6,-1.6 -43.2,-15.5 l -330,-474 c -9.7,-13.8 -9.5,-32.3 0.5,-45.9 l 283.9,-388.9 c -83,-209 -133.3,-432.7 -145.5,-663.8 l -420.1,-234.6 c -14.8,-8.2 -22.6,-24.9 -19.7,-41.5 l 101.9,-568.5 c 2.9,-16.6 16.1,-29.5 32.8,-32.1 l 475.4,-74.2 c 91.7,-212.5 216.5,-404.8 366.9,-572 l -131.2,-463.3 c -4.6,-16.2 1.6,-33.6 15.4,-43.2 l 474,-330 c 13.9,-9.7 32.3,-9.4 45.9,0.5 l 388.9,283.9 c 209,-83 432.7,-133.3 663.8,-145.5 l 234.6,-420.1 c 8.3,-14.7 24.9,-22.6 41.5,-19.7 l 568.6,101.9 c 16.6,2.9 29.5,16.1 32,32.8 l 74.2,475.4 c 212.5,91.7 404.9,216.5 572,366.9 l 463.3,-131.2 c 16.2,-4.6 33.6,1.6 43.2,15.4 l 330,474 c 9.7,13.9 9.5,32.3 -0.5,46 l -283.9,388.8 c 83,209 133.3,432.7 145.5,663.8 l 420.1,234.6 c 14.8,8.3 22.7,24.9 19.7,41.6 l -101.9,568.4 c -2.9,16.7 -16.1,29.6 -32.8,32.2 l -475.4,74.2 c -91.7,212.4 -216.5,404.8 -366.9,571.9 l 131.3,463.3 c 4.6,16.2 -1.6,33.6 -15.5,43.3 l -474,329.9"
         style="fill:#91b3fa;fill-opacity:1;fill-rule:nonzero;stroke:none"
         id="path62" /><path
         d="m 17964.4,24495.4 c -200.3,-90.4 -289.5,-327 -199,-527.2 90.5,-200.1 326.9,-289.5 527.2,-198.9 200.2,90.5 289.4,327 199,527.2 -90.5,200.1 -327,289.5 -527.2,198.9 z m 118.4,-988.4 c -221.7,16.5 -428,150.6 -525.8,367 -142.5,315.1 -2,687.4 313.1,829.9 v 0 c 315.2,142.4 687.5,1.9 829.9,-313.2 142.4,-315.1 1.9,-687.4 -313.2,-829.9 -98.6,-44.5 -202.9,-61.4 -304,-53.8"
         style="fill:#bdd0fb;fill-opacity:1;fill-rule:nonzero;stroke:none"
         id="path64" /><path
         d="m 18007.4,22617.6 c -265.7,19.7 -522.3,110.3 -746.7,266.6 -330.6,230.1 -551.7,575.2 -622.8,971.6 -22.8,127.4 -29.2,255.2 -19.8,381 19.8,265.6 110.4,522.1 266.6,746.5 230.1,330.6 575.2,551.8 971.7,622.8 105.9,19 213.6,26.7 320.2,22.9 l -8.1,-228.6 c -90.3,3.2 -181.8,-3.3 -271.7,-19.4 -321.7,-57.7 -603.5,-231.9 -798.3,-492.2 -2.9,-3.9 -5.8,-7.8 -8.7,-11.8 -5.9,-8.1 -11.7,-16.1 -17.4,-24.4 -132.5,-190.3 -209.3,-407.9 -226.1,-633.3 -8,-106.6 -2.5,-215.1 16.8,-323.1 60.3,-336.4 247.9,-629.1 528.3,-824.3 280.5,-195.4 620.2,-269.9 956.5,-209.3 336.3,60.2 629.1,247.8 824.3,528.2 132.5,190.4 209.3,408 226.1,633.4 8,106.6 2.5,215 -16.8,323 -40.9,228.4 -142.6,440.9 -294.2,614.6 l 172.4,150.4 c 178.8,-204.9 298.7,-455.5 346.9,-724.6 22.9,-127.3 29.3,-255.1 19.9,-380.9 -19.8,-265.6 -110.4,-522.1 -266.6,-746.5 -230.1,-330.6 -575.2,-551.8 -971.7,-622.8 -127.3,-22.8 -255.1,-29.2 -380.8,-19.8"
         style="fill:#bdd0fb;fill-opacity:1;fill-rule:nonzero;stroke:none"
         id="path66" /><g
         id="g68"><g
           id="g70"
           clip-path="url(#clipPath74)"><path
             d="m 16059.4,10274 c -1982.2,437.1 -489,3377.6 -418.6,3491.4 L 12088.6,12518 c 0,0 -317.2,-1709.4 1893.3,-3282.6 559.2,-398 1125.1,-569.6 1658.5,-604.6 -36.4,686.2 166.8,1234.8 419,1643.2"
             style="fill:url(#linearGradient80);fill-opacity:1;fill-rule:nonzero;stroke:none"
             id="path82" /></g></g><g
         id="g84"><g
           id="g86"
           clip-path="url(#clipPath90)"><path
             d="m 20094.1,10138.7 c -582.5,711.8 -1548.9,440.8 -1548.9,440.8 -1151.7,-358.7 -1946.9,-424.4 -2485.8,-305.5 -252.2,-408.4 -455.4,-957 -419,-1643.2 1154.3,-75.7 2156.5,490 2609.6,797.7 163.2,110.8 385.9,74.7 501.3,-85.2 117.3,-162.4 217.6,-367.7 142,-532.2 -149.1,-324.4 214,-544.3 278.7,-429.7 64.7,114.6 108,891 108,891 0,0 562.1,-1016.1 783,-1407.9 220.8,-391.8 694,-197.5 694,-197.5 0,0 -80.5,1759.9 -662.9,2471.7"
             style="fill:url(#linearGradient96);fill-opacity:1;fill-rule:nonzero;stroke:none"
             id="path98" /></g></g><g
         id="g100"><g
           id="g102"
           clip-path="url(#clipPath106)"><path
             d="m 8152.79,17743.5 c 0,0 2494.11,1964.8 9035.71,-829.9 0,0 707.5,-780.4 466.5,-1731.4 -241.1,-951 -3647.8,-6242.3 -3631.4,-8615.4 0,0 -2461.4,-1686 -5893.99,-417.7 0,0 -1545.03,6163.1 23.18,11594.4"
             style="fill:url(#linearGradient112);fill-opacity:1;fill-rule:nonzero;stroke:none"
             id="path114" /></g></g><g
         id="g116"><g
           id="g118"
           clip-path="url(#clipPath122)"><path
             d="m 13445,20400 -895,-2097.4 c -88.8,-208.2 -50.7,-450.2 102.4,-617.1 309.2,-337.2 936.6,-776 1929.9,-397.2 295.5,112.6 509.6,374 561.3,686 l 380.7,2298.6 -2079.3,127.1"
             style="fill:url(#linearGradient128);fill-opacity:1;fill-rule:nonzero;stroke:none"
             id="path130" /></g></g><g
         id="g132"><g
           id="g134"
           clip-path="url(#clipPath138)"><path
             d="m 8091.96,9871.8 c -721.94,1240.2 1725.21,5199.7 1725.21,5199.7 l -1664.38,2672 c 0,0 -5771.91,-6893.7 -2810.45,-10198.4 424.54,-473.7 886.56,-757.1 1366.44,-896.2 119.84,1726.3 830.97,2711.3 1383.18,3222.9"
             style="fill:url(#linearGradient144);fill-opacity:1;fill-rule:nonzero;stroke:none"
             id="path146" /></g></g><g
         id="g148"><g
           id="g150"
           clip-path="url(#clipPath154)"><path
             d="m 8032.29,9873.4 c -35.29,-10.4 -74.45,4 -93.81,37.3 -738.19,1268 1625.45,5120.5 1726.37,5283.9 23.71,38.3 74.07,50.4 112.73,26.6 38.47,-23.8 50.35,-74.3 26.65,-112.7 -24.26,-39.2 -2413.32,-3931.7 -1724.19,-5115.4 22.74,-39.1 9.49,-89.2 -29.61,-112 -5.78,-3.3 -11.91,-5.9 -18.14,-7.7"
             style="fill:url(#linearGradient160);fill-opacity:1;fill-rule:nonzero;stroke:none"
             id="path162" /></g></g><g
         id="g164"><g
           id="g166"
           clip-path="url(#clipPath170)"><path
             d="m 13895,10008.4 c -442.9,-122.8 -854.9,-343 -1299.9,-456.3 -494,-125.7 -982.5,-273.5 -1480.1,-385.5 -774,-174.3 -1792.45,-374.1 -2472.24,157.9 -57.34,44.9 -518.31,566.1 -550.8,547.3 -1234.32,-713.1 -1474.35,-2379.5 -1474.35,-3188 2250.41,-1230.6 5789.59,1165.6 6742.99,1865.9 156.9,115.2 351,165.1 543.8,138.6 389.9,-53.4 1061.9,-125.3 1416.2,-45.6 518.4,116.5 1397.2,-1680.2 2207.4,-1052.1 0,0 -946.6,3162.6 -3633,2417.8"
             style="fill:url(#linearGradient176);fill-opacity:1;fill-rule:nonzero;stroke:none"
             id="path178" /></g></g><g
         id="g180"><g
           id="g182"
           clip-path="url(#clipPath186)"><path
             d="m 16345.5,23364.4 c 0,0 565.2,-1830.4 514,-2752.3 -51.1,-921.9 80,-1538.5 -1000,-1604.8 -1080,-66.3 -1913.6,560.9 -2295.2,1527.5 0,0 -600.7,1490.8 -366.5,2047.8 234.1,557 3147.7,781.8 3147.7,781.8"
             style="fill:url(#linearGradient192);fill-opacity:1;fill-rule:nonzero;stroke:none"
             id="path194" /></g></g><g
         id="g196"><g
           id="g198"
           clip-path="url(#clipPath202)"><path
             d="m 13999.5,21150.6 133.9,-14.9 c 0,0 -425.6,1193.4 81.4,1338.2 507.1,144.8 2471.4,322.2 2961.8,957.5 472.7,612.4 211.1,1500.8 -295.4,1797.7 -32.1,18.8 -73.6,7.4 -94.5,-23.4 l -53.5,-78.6 c -36.6,-53.8 -120.1,-35.7 -131.2,28.4 v 0 c -10.5,60.9 -88.5,82.6 -126.8,34.2 -149.6,-189.7 -530,-482.8 -1470.2,-550.1 -1334,-95.4 -2257.2,-528 -2379.2,-1429 -7.7,-57.1 -72.4,-81.8 -118,-46.6 -89.9,69.6 -241.3,114.4 -467,-36.1 -392.6,-261.8 -333,-1061 381.9,-1792.8 34,-34.8 27.2,-93.1 -16.2,-115 -153,-76.9 -390.3,-274.1 127.8,-630.1 530,-364.1 867.3,-368.5 996.7,-350.3 34.9,4.9 61.1,33.2 62.8,68.3 l 39.8,806.1 c 2.1,41.7 38.9,73 80.4,68.4 l 285.5,-31.9"
             style="fill:url(#linearGradient208);fill-opacity:1;fill-rule:nonzero;stroke:none"
             id="path210" /></g></g><g
         id="g212"><g
           id="g214"
           clip-path="url(#clipPath218)"><path
             d="m 14013.7,20979.5 c 0,0 -165.5,1147.4 -700.4,890.5 -534.8,-256.9 120.1,-1278.3 517.4,-1364.9 l 183,474.4"
             style="fill:url(#linearGradient224);fill-opacity:1;fill-rule:nonzero;stroke:none"
             id="path226" /></g></g><g
         id="g228"><g
           id="g230"
           clip-path="url(#clipPath234)"><path
             d="m 12258.3,6531.7 c 6.9,-0.3 13.9,-0.3 20.9,-0.2 l 9081.7,140.6 c 224.5,3.4 402.9,178.9 398.5,392.1 -4.4,213.2 -190.7,386.7 -414.5,379.6 l -9081.7,-140.5 c -224.5,-3.4 -402.9,-179 -398.5,-392.1 4.3,-206.5 178.6,-372.5 393.6,-379.5"
             style="fill:url(#linearGradient240);fill-opacity:1;fill-rule:nonzero;stroke:none"
             id="path242" /></g></g><g
         id="g244"><g
           id="g246"
           clip-path="url(#clipPath250)"><path
             d="m 15793.3,19827.6 c -1618.1,-137.2 -2941.9,1129.8 -2951.2,1148.8 v 285.6 c 8.9,-18.2 1403.8,-1426.3 2941.9,-1295.9 l 9.3,-138.5"
             style="fill:url(#linearGradient256);fill-opacity:1;fill-rule:nonzero;stroke:none"
             id="path258" /></g></g><g
         id="g260"><g
           id="g262"
           clip-path="url(#clipPath266)"><path
             d="m 16452.9,19897.8 c 0,-107.7 -77.7,-194.9 -173.6,-194.9 h -463 c -95.9,0 -173.7,87.2 -173.7,194.9 v 0 c 0,107.7 77.8,195 173.7,195 h 463 c 95.9,0 173.6,-87.3 173.6,-195 v 0"
             style="fill:url(#linearGradient272);fill-opacity:1;fill-rule:nonzero;stroke:none"
             id="path274" /></g></g><g
         id="g276"><g
           id="g278"
           clip-path="url(#clipPath282)"><path
             d="m 13668.8,22698.8 c 0,0 -369.6,1971.7 1909.8,1982.7 31.5,0.2 36.8,45.4 6,52.5 -624.4,143.9 -2436.8,357 -2464.1,-2009.1 347.3,-125 548.3,-26.1 548.3,-26.1"
             style="fill:url(#linearGradient288);fill-opacity:1;fill-rule:nonzero;stroke:none"
             id="path290" /></g></g><g
         id="g292"><g
           id="g294"
           clip-path="url(#clipPath298)"><path
             d="m 13251.1,22939.3 c -889.5,-180.5 -780.2,-1305.4 -780.2,-1305.4 -64.1,-816.3 174.2,-1221 479.5,-1413.8 208.6,-131.7 471.1,-143.9 691.4,-32.8 220.2,111.1 366,329.6 384.2,575.6 16.4,222.2 35.2,433.4 51.7,508.4 40,181.7 62.9,1848.6 -826.6,1668"
             style="fill:url(#linearGradient304);fill-opacity:1;fill-rule:nonzero;stroke:none"
             id="path306" /></g></g><g
         id="g308"><g
           id="g310"
           clip-path="url(#clipPath314)"><path
             d="m 13332.8,22654.9 c -184.7,32.1 -366.8,-66 -441.1,-238.1 -531.6,-1231.5 121.1,-2032.6 441.6,-2049.4 337.7,-17.6 330.9,1607.3 259.2,2023.8 -30.1,174.6 -141,243.1 -259.7,263.7"
             style="fill:url(#linearGradient320);fill-opacity:1;fill-rule:nonzero;stroke:none"
             id="path322" /></g></g><g
         id="g324"><g
           id="g326"
           clip-path="url(#clipPath330)"><path
             d="m 4972.33,6221.2 c -15.15,112.1 5.48,228.1 56.25,316.3 50.78,88.1 126.39,139.1 206.18,139.1 H 32261.7 c 104.9,0 202.6,-76.5 259.1,-203.1 56.5,-126.6 64.1,-285.7 20.1,-422.1 L 32248,5143.7 c -67,-207.9 -212.4,-341 -372.3,-341 H 5420.21 c -148.75,0 -276.61,151.1 -304.86,360.2 l -143.02,1058.3"
             style="fill:url(#linearGradient336);fill-opacity:1;fill-rule:nonzero;stroke:none"
             id="path338" /></g></g><path
         d="m 5005.51,6225.7 143.03,-1058.3 c 25.89,-191.9 140.18,-331.2 271.66,-331.2 h 26455.5 c 144.6,0 278.2,124.7 340.4,317.7 l 292.9,907.8 c 41.8,129.4 34.8,278.2 -18.8,398.1 -51.3,114.8 -136.7,183.4 -228.6,183.4 H 5234.76 c -67.78,0 -132.36,-44.7 -177.16,-122.5 -47.35,-82.1 -66.32,-189.7 -52.09,-295 z M 31875.7,4769.2 H 5420.2 c -165.4,0 -307.57,163.7 -338.05,389.2 l -143.02,1058.3 c -16.16,119.8 5.88,242.8 60.46,337.5 57.06,99.1 142.76,155.9 235.17,155.9 H 32261.6 c 119.1,0 227.4,-83.3 289.8,-222.9 60.1,-134.6 68.1,-301.4 21.4,-446.1 l -292.9,-907.7 c -71.4,-221.2 -230,-364.2 -404.2,-364.2"
         style="fill:#91b3fa;fill-opacity:1;fill-rule:nonzero;stroke:none"
         id="path340" /><g
         id="g342"><g
           id="g344"
           clip-path="url(#clipPath348)"><path
             d="m 19263.9,16990.6 c -152.6,-1247.4 -839.4,-6315.6 -1036,-7763.7 -27.6,-203.7 134.1,-382.8 339.6,-376.9 l 11650.1,333.4 c 152.5,4.3 282.5,111.7 315.6,260.6 l 1812.3,8161.6 c 47.9,215.8 -123.9,417.5 -344.6,404.6 l -12426,-727.9 c -160.6,-9.4 -291.4,-132 -311,-291.7"
             style="fill:url(#linearGradient354);fill-opacity:1;fill-rule:nonzero;stroke:none"
             id="path356" /></g></g><g
         id="g358"><g
           id="g360"
           clip-path="url(#clipPath364)"><path
             d="M 23946.9,11872.4 22225,6985.3 l 4003.7,-84.8 333.4,4942.6 c 15.6,231.9 -176.7,424.5 -408.7,409.1 L 24283.7,12128 c -153.3,-10.2 -285.8,-110.7 -336.8,-255.6"
             style="fill:url(#linearGradient370);fill-opacity:1;fill-rule:nonzero;stroke:none"
             id="path372" /></g></g><path
         d="m 22272,7017.8 3925.5,-83.2 331.2,4910.7 c 6.8,100.9 -30.3,199.9 -101.8,271.4 -71.5,71.6 -170.3,108.6 -271.3,102 l -1869.7,-124.1 c -140.1,-9.3 -260.8,-100.9 -307.5,-233.3 z m 3988,-151.5 -32,0.7 -4049.9,85.8 1737.2,4930.7 c 55.5,157.7 199.3,266.8 366.2,277.9 l 1869.7,124.2 c 120.5,7.7 237.9,-36.3 323.1,-121.5 85.1,-85.3 129.3,-203.1 121.2,-323.3 L 26260,6866.3"
         style="fill:#91b3fa;fill-opacity:1;fill-rule:nonzero;stroke:none"
         id="path374" /><g
         id="g376"><g
           id="g378"
           clip-path="url(#clipPath382)"><path
             d="m 20601.9,6915.7 v 0 c -44.1,-134.5 56,-272.8 197.6,-272.8 h 6270 c 114.8,0 207.9,93.1 207.9,208 v 268.9 c 0,118.3 -98.6,212.8 -216.9,207.7 l -6269.9,-268.9 c -86.6,-3.7 -161.7,-60.6 -188.7,-142.9"
             style="fill:url(#linearGradient388);fill-opacity:1;fill-rule:nonzero;stroke:none"
             id="path390" /></g></g><path
         d="m 27069.7,7294.3 c -2.6,0 -5.1,-0.1 -7.7,-0.2 l -6270,-268.9 c -72.2,-3.1 -135.8,-51.3 -158.3,-119.9 v 0 c -17.6,-53.8 -8.7,-110.9 24.5,-156.8 33.2,-45.8 84.7,-72.1 141.3,-72.1 h 6270 c 96.2,0 174.4,78.3 174.4,174.5 v 268.9 c 0,48 -19.1,92.8 -53.8,126 -32.8,31.4 -75.3,48.5 -120.4,48.5 z m -0.2,-684.9 h -6270 c -78.4,0 -149.6,36.4 -195.6,99.9 -45.9,63.4 -58.2,142.4 -33.8,216.8 31.1,95 119.1,161.7 219,166 l 6270,268.9 c 66.5,2.9 129.4,-20.9 177.4,-66.9 48,-45.9 74.4,-107.9 74.4,-174.3 v -268.9 c 0,-133.2 -108.3,-241.5 -241.4,-241.5"
         style="fill:#91b3fa;fill-opacity:1;fill-rule:nonzero;stroke:none"
         id="path392" /><path
         d="m 19087.9,11834.6 -82.6,10.5 572.4,4514.2 c 35.5,280 265.7,495.5 547.4,512.5 l 10738,648.5 5.1,-83.1 -10738.1,-648.5 c -241.7,-14.6 -439.3,-199.6 -469.7,-439.9 l -572.5,-4514.2"
         style="fill:#91b3fa;fill-opacity:1;fill-rule:nonzero;stroke:none"
         id="path394" /><path
         d="m 18801,9571.5 -82.7,10.4 124,977.3 82.6,-10.4 -123.9,-977.3"
         style="fill:#91b3fa;fill-opacity:1;fill-rule:nonzero;stroke:none"
         id="path396" /><g
         id="g398"><g
           id="g400"
           clip-path="url(#clipPath404)"><path
             d="m 22806.1,28980.2 v -2513.3 c 0,-298.6 234.6,-544.6 532.9,-558.6 l 3143,-147.6 c 318.8,-15 585.4,239.4 585.4,558.5 v 2661 c 0,308.8 -250.4,559.2 -559.2,559.2 h -3143 c -308.8,0 -559.1,-250.4 -559.1,-559.2"
             style="fill:url(#linearGradient410);fill-opacity:1;fill-rule:nonzero;stroke:none"
             id="path412" /></g></g><path
         d="m 26204.5,27933.7 c 0,-119.3 -37.6,-235.4 -102.4,-335.5 l -61.7,-103.8 c -63.8,-98.8 -173.8,-168.6 -291.4,-168.6 h -1481.3 l -81.1,299.2 -153.7,565.9 h 2171.6 z m -2198.9,370.1 -122.7,453.5 -358,195.1 -47.7,-87.3 320.4,-173 381.8,-1399.9 11.8,-41.6 H 25749 c 151.8,0 291.4,74.4 373.8,201.9 l 69.8,92.2 c 75.2,116.5 124.8,250.3 124.8,389 v 370.1 h -2311.8"
         style="fill:#ffffff;fill-opacity:1;fill-rule:nonzero;stroke:none"
         id="path414" /><path
         d="m 26107.4,26742.7 c 0,-27.6 -22.5,-56.4 -50.2,-56.4 h -1827.8 c -27.7,0 -56.1,43.3 -56.1,70.9 v 861.9 c 0,9.5 5.6,7.5 10.3,15.1 l 84.1,-308.4 h 18.5 v -526.6 h 1771 c 27.7,0 50.2,-28.8 50.2,-56.5"
         style="fill:#ffffff;fill-opacity:1;fill-rule:nonzero;stroke:none"
         id="path416" /><path
         d="m 25159.4,27315.4 h -66.8 v 938.3 h 66.8 v -938.3"
         style="fill:#ffffff;fill-opacity:1;fill-rule:nonzero;stroke:none"
         id="path418" /><path
         d="m 24570,27315.4 h -66.7 v 938.3 h 66.7 v -938.3"
         style="fill:#ffffff;fill-opacity:1;fill-rule:nonzero;stroke:none"
         id="path420" /><path
         d="m 25734.8,27315.4 h -66.7 v 938.3 h 66.7 v -938.3"
         style="fill:#ffffff;fill-opacity:1;fill-rule:nonzero;stroke:none"
         id="path422" /><path
         d="m 26228.4,27918 h -2170.1 v 59.7 h 2170.1 v -59.7"
         style="fill:#ffffff;fill-opacity:1;fill-rule:nonzero;stroke:none"
         id="path424" /><path
         d="m 26174,27591.4 h -2021 v 59.7 h 2021 v -59.7"
         style="fill:#ffffff;fill-opacity:1;fill-rule:nonzero;stroke:none"
         id="path426" /><path
         d="m 24463.5,26276.4 c -71.8,0 -130,58.2 -130,130.1 0,71.8 58.2,130 130,130 71.9,0 130.1,-58.2 130.1,-130 0,-71.9 -58.2,-130.1 -130.1,-130.1 z m 0,345.6 c -119,0 -215.5,-96.5 -215.5,-215.5 0,-119.1 96.5,-215.6 215.5,-215.6 119.1,0 215.6,96.5 215.6,215.6 0,119 -96.5,215.5 -215.6,215.5"
         style="fill:#ffffff;fill-opacity:1;fill-rule:nonzero;stroke:none"
         id="path428" /><path
         d="m 25802.8,26276.4 c -71.9,0 -130.1,58.2 -130.1,130.1 0,71.8 58.2,130 130.1,130 71.8,0 130.1,-58.2 130.1,-130 0,-71.9 -58.3,-130.1 -130.1,-130.1 z m 0,345.6 c -119,0 -215.5,-96.5 -215.5,-215.5 0,-119.1 96.5,-215.6 215.5,-215.6 119,0 215.5,96.5 215.5,215.6 0,119 -96.5,215.5 -215.5,215.5"
         style="fill:#ffffff;fill-opacity:1;fill-rule:nonzero;stroke:none"
         id="path430" /><path
         d="m 23747,28865.4 c 0,-55.9 -45.4,-101.3 -101.3,-101.3 h -336.9 c -55.9,0 -101.3,45.4 -101.3,101.3 v 0 c 0,55.9 45.4,101.2 101.3,101.2 h 336.9 c 55.9,0 101.3,-45.3 101.3,-101.2 v 0"
         style="fill:#ffffff;fill-opacity:1;fill-rule:nonzero;stroke:none"
         id="path432" /><g
         id="g434"><g
           id="g436"
           clip-path="url(#clipPath440)"><path
             d="m 15992.8,31885.8 v -2696 c 0,-320.3 251.7,-584.1 571.7,-599.1 l 3371.4,-158.4 c 341.9,-16.1 627.9,256.8 627.9,599.1 v 2854.4 c 0,331.3 -268.5,599.8 -599.8,599.8 h -3371.4 c -331.2,0 -599.8,-268.5 -599.8,-599.8"
             style="fill:url(#linearGradient446);fill-opacity:1;fill-rule:nonzero;stroke:none"
             id="path448" /></g></g><path
         d="m 17122,31361.3 c -59.3,0 -107.6,-48.3 -107.6,-107.7 v -1699.1 c 0,-59.3 48.3,-107.6 107.6,-107.6 h 2323.4 c 59.4,0 107.7,48.3 107.7,107.6 v 1699.1 c 0,59.4 -48.3,107.7 -107.7,107.7 z m 2323.4,-2122.5 H 17122 c -174.1,0 -315.7,141.6 -315.7,315.7 v 1699.1 c 0,174.1 141.6,315.8 315.7,315.8 h 2323.4 c 174.1,0 315.8,-141.7 315.8,-315.8 v -1699.1 c 0,-174.1 -141.7,-315.7 -315.8,-315.7"
         style="fill:#ffffff;fill-opacity:1;fill-rule:nonzero;stroke:none"
         id="path450" /><path
         d="m 18285.8,30366.6 c -21.1,0 -42.2,6.3 -60.2,19.2 l -1301.9,923.2 c -46.9,33.2 -58,98.2 -24.7,145.1 33.2,46.8 98.2,57.9 145,24.6 l 1241.7,-880.5 1225.5,870.4 c 46.9,33.3 111.8,22.4 145.1,-24.5 33.3,-46.9 22.3,-111.8 -24.6,-145.1 L 18346,30385.8 c -18,-12.8 -39.1,-19.2 -60.2,-19.2"
         style="fill:#ffffff;fill-opacity:1;fill-rule:nonzero;stroke:none"
         id="path452" /><path
         d="m 16999.9,29311.4 -30.1,205.9 14,-103.1 -87.1,56.7 c 24.1,38.8 493.6,860 803.4,1402.6 28.4,49.9 91.9,67.3 141.9,38.7 49.9,-28.4 67.3,-92 38.8,-141.9 0,0 -200.9,-351.8 -402.1,-703.7 -100.7,-176 -201.4,-352 -277.2,-484 -151.1,-263.3 -151.1,-263.3 -201.6,-271.2"
         style="fill:#ffffff;fill-opacity:1;fill-rule:nonzero;stroke:none"
         id="path454" /><path
         d="m 19563.7,29311.5 c -50.3,7.9 -50.3,7.9 -201.4,271.1 -75.8,132 -176.5,308 -277.2,484 -201.2,351.9 -402.1,703.7 -402.1,703.7 -28.4,49.9 -11.1,113.5 38.8,142 49.9,28.5 113.5,11.1 142,-38.8 309.7,-542.5 779.2,-1363.8 803.3,-1402.6 l -87.1,-56.7 -16.3,-102.7"
         style="fill:#ffffff;fill-opacity:1;fill-rule:nonzero;stroke:none"
         id="path456" /><g
         id="g458"><g
           id="g460"
           clip-path="url(#clipPath464)"><path
             d="m 26708.6,23519 v -2371.3 c 0,-281.8 221.4,-513.8 502.8,-527 l 2965.4,-139.3 c 300.8,-14.2 552.4,225.9 552.4,527 V 23519 c 0,291.4 -236.2,527.6 -527.6,527.6 h -2965.4 c -291.4,0 -527.6,-236.2 -527.6,-527.6"
             style="fill:url(#linearGradient470);fill-opacity:1;fill-rule:nonzero;stroke:none"
             id="path472" /></g></g><path
         d="m 28977.7,22312.7 c -6,0 -12,2 -17,6.2 -11.1,9.3 -12.5,26 -3.2,37.1 l 308.1,366.5 19.4,-11.8 c 239.9,-146.1 527.8,-106.2 716.2,99.3 122,133 181.3,310 162.7,485.5 -2.5,23.7 -17.6,42.3 -40.4,49.8 -18.1,6 -44.5,4.8 -64,-16.5 l -332,-362 c -29,-31.6 -71.7,-48.2 -114.4,-44.5 l -178.7,15.3 c -62.8,5.5 -114.2,52.6 -125,114.7 l -30.7,176.7 c -7.4,42.2 5.5,86.2 34.5,117.8 l 332,362 c 19.5,21.3 18.5,47.6 10.9,65.1 -9.4,22.1 -29.3,35.6 -53,36.1 -176.2,3.2 -347.8,-71 -469.8,-204 -188.4,-205.5 -203.4,-495.7 -37.1,-722.1 l 13.4,-18.3 -399.3,-399.1 c -10.2,-10.3 -26.9,-10.3 -37.2,0 -10.3,10.2 -10.3,26.9 0,37.2 l 367.5,367.5 c -167.5,244.5 -146.9,551.4 53.9,770.4 132.2,144.1 317.6,225 509.6,221 44.4,-0.8 82.9,-26.9 100.5,-67.9 17.8,-41.7 9.9,-88.3 -20.6,-121.5 l -332,-362 c -18,-19.6 -26,-47 -21.4,-73.2 l 30.7,-176.6 c 6.7,-38.6 38.7,-67.9 77.7,-71.3 l 178.6,-15.4 c 26.6,-2.3 53.1,8.1 71.1,27.7 l 332,362 c 30.5,33.2 76.2,45.1 119.3,30.9 42.4,-14 71.6,-50.1 76.3,-94.2 20.2,-190.6 -44.1,-382.6 -176.3,-526.7 -200.8,-219 -504.9,-266 -762.9,-120.2 l -279.2,-332.1 c -5.3,-6.2 -12.7,-9.4 -20.2,-9.4 z m -1331.8,-1142.9 c -13.4,0 -26.4,-2.9 -35.5,-5.7 -37.2,-11.2 -75.7,-37 -108.3,-72.5 -61.8,-67.4 -84.6,-155.4 -48.7,-188.2 31.9,-29.3 115,-9.8 183.3,64.7 v 0.1 c 32.6,35.5 55,76 62.9,114 4,19.2 7.5,54.4 -14.1,74.2 -11.1,10.2 -25.6,13.4 -39.6,13.4 z m -152.6,-332.5 c -29.2,0 -55.4,8.8 -75.5,27.2 -59.5,54.6 -39.5,170 45.5,262.7 38.9,42.4 85.8,73.4 131.9,87.3 50.9,15.4 95.6,8.5 125.9,-19.3 30.3,-27.8 41,-71.7 30.1,-123.8 -9.9,-47.1 -36.7,-96.4 -75.6,-138.9 -56.4,-61.3 -125,-95.2 -182.3,-95.2 z m -25.9,-167.8 c -43.1,0 -82.5,13.1 -112.4,40.5 l -85.8,78.7 c -41.5,38.1 -58.8,96.7 -48.5,164.9 9.6,64.3 43,130.4 94,186 l 57.2,62.4 c 4.1,4.4 8.2,8.7 12.4,12.9 l 1069.6,1069.6 c 10.3,10.3 26.9,10.3 37.2,0 10.3,-10.3 10.3,-27 0,-37.3 l -1069.5,-1069.5 c -3.7,-3.7 -7.3,-7.4 -10.8,-11.3 l -57.3,-62.4 c -43.9,-47.9 -72.6,-104.1 -80.8,-158.3 -7.5,-50.3 3.9,-92.2 32.2,-118.2 l 85.8,-78.7 c 60.3,-55.3 184.5,-22.2 271.2,72.4 l 57.2,62.4 c 3.6,3.8 7,7.7 10.4,11.7 l 854.1,1015.9 c 9.3,11.2 26,12.6 37.1,3.2 11.1,-9.3 12.6,-25.9 3.2,-37.1 l -854.1,-1015.9 c -3.9,-4.5 -7.8,-9.1 -11.9,-13.5 l -57.2,-62.3 c -68.9,-75.1 -157,-116.1 -233.3,-116.1"
         style="fill:#ffffff;fill-opacity:1;fill-rule:nonzero;stroke:none"
         id="path474" /><path
         d="m 28853.3,22252 -195.7,-170.8 c -22.4,-19.5 -25.2,-52.8 -6.4,-75.8 l 992.5,-1215.2 c 30.2,-36.9 73,-59.5 120.5,-63.5 47.6,-3.9 93.5,11.1 129.4,42.4 l 92.1,80.4 c 35.9,31.3 57.1,74.8 59.5,122.4 2.5,47.7 -14,93.1 -46.5,128 L 28929.3,22248 c -20.2,21.7 -53.6,23.5 -76,4 z m 926.1,-1596.1 c -7,0 -14,0.3 -21.1,0.8 -66.7,5.7 -126.7,37.3 -169,89.1 l -992.5,1215.2 c -42.9,52.5 -36.5,128.5 14.6,173.1 l 195.8,170.8 c 51.1,44.6 127.3,40.6 173.5,-9 L 30050,21147.8 c 45.6,-48.9 68.8,-112.7 65.4,-179.5 -3.5,-66.8 -33.2,-127.8 -83.6,-171.8 l -92,-80.3 c -45.1,-39.3 -101.4,-60.3 -160.4,-60.3"
         style="fill:#ffffff;fill-opacity:1;fill-rule:nonzero;stroke:none"
         id="path476" /><path
         d="m 27819.2,23176 847.9,-991.7 88.1,66.3 -872.5,980.1 9,16.3 c 3.2,5.7 3.9,11.6 1.8,15 l -167.2,277.2 c -0.5,0.8 -1.1,1.5 -1.8,2 l -209.3,144.4 c -4.8,3.3 -15.1,2.2 -23.6,-5.3 l -64.6,-56.3 c -8.5,-7.4 -11,-17.5 -8.4,-22.6 l 114.5,-226.6 c 0.4,-0.9 1,-1.6 1.9,-2.2 l 258.3,-198.2 c 2.3,-1.8 6.3,-2.3 10.8,-1.4 z m 840.1,-1063.6 -861.4,1007.5 c -13.6,0.4 -26.2,4.7 -36.7,12.7 l -258.3,198.2 c -7.1,5.4 -12.8,12.3 -16.8,20.2 l -114.5,226.6 c -14.1,27.8 -5.5,63.2 20.8,86.1 l 64.5,56.3 c 26.3,23 62.5,26.7 88.2,9 l 209.2,-144.4 c 7,-4.8 12.8,-10.9 17.1,-18.1 l 167.2,-277.3 c 8.8,-14.6 11,-32.2 6.5,-49.4 l 887.5,-996.9 -173.3,-130.5"
         style="fill:#ffffff;fill-opacity:1;fill-rule:nonzero;stroke:none"
         id="path478" /><g
         id="g480"><g
           id="g482"
           clip-path="url(#clipPath486)"><path
             d="M 8750.86,30177.5 V 27342 c 0,-336.9 264.72,-614.4 601.25,-630.2 L 12898,26545.2 c 359.7,-16.9 660.5,270.2 660.5,630.2 v 3002.1 c 0,348.4 -282.5,630.9 -630.9,630.9 H 9381.72 c -348.41,0 -630.86,-282.5 -630.86,-630.9"
             style="fill:url(#linearGradient492);fill-opacity:1;fill-rule:nonzero;stroke:none"
             id="path494" /></g></g><path
         d="m 11267.4,28427.1 c 0.2,125.6 -4.5,251.2 -14.9,376.3 -10.3,125.1 -25.8,249.8 -48.9,373.2 -11.6,61.7 -25,123 -41,183.7 -16.1,60.6 -34.6,120.6 -57.2,179.1 -22.7,58.2 -49.1,115.5 -84.1,167.2 -17.5,25.7 -37.4,50.1 -61.2,69.9 -11.9,9.9 -24.8,18.6 -38.8,25 -14,6.3 -29,10.4 -44.3,10.8 -15.3,0.5 -30.5,-2.6 -44.7,-8.4 -14.2,-5.8 -27.2,-14.3 -39.1,-24.2 -23.7,-19.8 -43,-44.7 -59.7,-70.9 -16.7,-26.3 -30.9,-54.3 -43.6,-82.8 -12.7,-28.6 -23.8,-57.9 -33.9,-87.6 -20.2,-59.3 -36.4,-120 -50.2,-181.1 -13.7,-61.3 -25.1,-123 -34.7,-185 -19.2,-124.1 -31.7,-249.2 -39.6,-374.5 -7.9,-125.4 -10.7,-251 -10.5,-376.6 -0.3,-125.5 3.9,-251.1 13.2,-376.3 9.4,-125.2 23.7,-250.1 45.2,-373.7 10.8,-61.8 23.3,-123.3 38.4,-184.2 15.1,-60.8 32.6,-121.1 54.1,-179.8 21.7,-58.6 47,-116.3 81.2,-168.2 17.3,-25.7 36.9,-50.2 60.6,-69.5 11.9,-9.6 24.8,-18 38.8,-23.6 13.9,-5.7 28.9,-8.9 43.8,-8.4 15,0.4 29.8,4.3 43.4,10.7 13.8,6.3 26.4,15 38,25 23.3,20 42.4,44.7 59.4,70.7 33.6,52.3 58.6,110.1 80,168.8 21.2,58.9 38.6,119.2 53.5,180.1 14.9,60.9 27.3,122.4 38,184.2 21.3,123.7 35.5,248.6 44.9,373.8 9.5,125.1 13.9,250.7 13.9,376.3 z m 18.6,0 c -0.4,-251.9 -17.6,-504.4 -61.8,-752.8 -11.2,-62.1 -24.2,-123.9 -39.7,-185 -15.5,-61.2 -33.4,-121.8 -55.3,-181 -22.2,-59.2 -47.8,-117.4 -82.6,-170.6 -17.6,-26.5 -37.5,-51.8 -62,-72.6 -12.3,-10.4 -25.8,-19.6 -40.6,-26.3 -14.8,-6.7 -31,-10.9 -47.4,-11.2 -16.4,-0.5 -32.8,2.8 -47.9,8.9 -15.1,6 -28.9,14.8 -41.5,24.8 -25.1,20.1 -45.5,45.2 -63.3,71.4 -35.5,52.9 -61.5,111 -83.8,170 -22.2,59.2 -40.3,119.7 -56,180.9 -15.6,61.1 -28.7,122.8 -40,184.8 -22.5,124.1 -37.9,249.4 -48.3,375 -10.3,125.7 -15.4,251.7 -16.1,377.8 -0.3,63 1.4,126.1 3.7,189 2.3,63 5.8,125.9 10.4,188.8 9.3,125.7 23.2,251.1 43.8,375.4 10.3,62.2 22.4,124.1 36.9,185.5 14.5,61.3 31.4,122.2 52.4,181.7 10.6,29.8 22.1,59.2 35.2,87.9 13.2,28.7 27.8,56.8 45.1,83.4 17.3,26.4 37.2,51.7 61.9,71.9 12.4,10 26,18.7 41,24.6 14.9,6 31,9 47.1,8.4 16.1,-0.4 31.9,-4.5 46.5,-10.9 14.7,-6.5 28.1,-15.4 40.5,-25.4 24.7,-20.1 45.1,-44.8 63.3,-70.6 36,-52.1 63.2,-109.6 86.7,-168 23.4,-58.7 42.7,-118.8 59.5,-179.6 16.8,-60.8 31,-122.3 43.2,-184.1 48.6,-247.5 68.3,-500.1 69.1,-752.1"
         style="fill:#ffffff;fill-opacity:1;fill-rule:nonzero;stroke:none"
         id="path496" /><path
         d="m 10874,29775.6 c -9.2,0 -18.7,-1.9 -27.7,-5.7 -9.8,-4 -19.8,-10.2 -29.8,-18.5 -18,-15 -34.6,-34.8 -52.2,-62.4 -14.3,-22.6 -27.7,-48.1 -41,-78 -11.3,-25.4 -22,-53 -32.8,-84.5 -18,-53.1 -34.1,-111.1 -49,-177.4 -12.9,-57.3 -24.1,-117 -34.3,-182.5 -17.9,-116.1 -30.7,-237.5 -39.1,-371.1 -7.3,-114.2 -10.7,-236.6 -10.5,-374.2 -0.3,-127 4.1,-252.6 13.1,-373.7 9.9,-132.8 24.5,-253.9 44.7,-370.1 11.4,-65 23.7,-124.4 37.9,-181.6 16.3,-65.8 33.6,-123.3 52.9,-176 24.9,-67.1 49.5,-118.2 77.5,-160.6 18,-27 34.9,-46.5 53.1,-61.3 10,-8.2 19.9,-14.3 29.4,-18.1 10.1,-4.1 19.5,-5.6 28.9,-5.7 9.5,0.2 19.3,2.7 29.4,7.3 9.6,4.5 19.5,11.1 29.4,19.6 17.9,15.4 34.6,35.4 52.6,62.9 27.4,42.7 51.7,94 76.3,161.3 19,52.9 36.2,110.6 52.3,176.3 13.9,56.9 26.2,116.3 37.4,181.7 19.9,115.1 34.4,236.2 44.5,370.2 9.2,120.8 13.9,246.5 13.8,373.6 v 0.1 c 0.2,126.7 -4.7,252.2 -14.8,373.2 -10.9,133.1 -26.7,253.9 -48.4,369.4 -12,64.4 -25.2,123.6 -40.4,181.1 -17.2,65.1 -35.5,122.4 -55.9,175.2 -25.9,66.4 -51.4,117.3 -80.2,159.9 -18.6,27 -35.9,46.9 -54.4,62.3 -10.3,8.5 -20.6,15.2 -30.5,19.7 -10.5,4.8 -20.7,7.4 -30.1,7.6 -0.7,0 -1.4,0 -2.1,0 z m 19,-2784.8 c -19.1,0 -39.2,4 -57.9,11.6 -17.3,6.9 -33.8,16.7 -50.6,30.1 -25.2,20.1 -47.6,45.4 -70.8,79.5 -32.2,48.1 -60.1,104.4 -87.8,177.7 -20.9,55.7 -39.6,116.2 -57.2,184.7 -15.1,59 -28.3,120.3 -40.6,187.5 -21.6,118.9 -37.5,242.7 -48.7,378.5 -10.1,123.4 -15.6,251.5 -16.2,380.6 -0.4,67.5 1.6,134.2 3.6,190.5 2.4,64.1 5.9,128 10.5,190.2 10.1,136.5 24.6,260.4 44.2,378.7 11.2,67.5 23.5,129 37.4,188 16.4,69 33.9,129.6 53.5,185.4 12,33.7 23.9,63.5 36.5,91 15.3,33.5 30.9,62.3 47.6,88.1 22.7,34.6 44.8,60.1 69.6,80.4 16.5,13.4 33.5,23.5 50.6,30.3 19.6,7.9 41.1,11.6 61.9,10.9 19.8,-0.6 40.1,-5.3 59.9,-14 16.6,-7.4 32.5,-17.3 48.6,-30.4 24.7,-20.2 47,-44.9 70.3,-78.1 32.9,-47.5 61.7,-103.2 90.7,-175.4 22.2,-55.6 42.1,-115.6 60.9,-183.5 16.3,-59.1 30.6,-120.2 43.8,-186.7 46.1,-235.1 69,-483.5 69.7,-759.2 v -0.1 c -0.4,-277.4 -20.8,-525.8 -62.3,-759.3 -12.2,-67.1 -25.3,-128.4 -40.2,-187.6 -17.4,-68.5 -35.9,-128.9 -56.6,-184.8 -27.4,-73.3 -54.9,-129.9 -86.3,-177.9 -22.8,-34.4 -44.6,-59.9 -68.9,-80.5 -16.3,-13.7 -32.3,-24 -49.1,-31.7 -20.6,-9.2 -41.3,-14 -61.8,-14.4 -1.5,0 -2.9,-0.1 -4.3,-0.1"
         style="fill:#ffffff;fill-opacity:1;fill-rule:nonzero;stroke:none"
         id="path498" /><path
         d="m 11897.9,28427.1 c -0.2,160.5 -20.2,321.1 -62.3,475.9 -42.4,154.6 -106.3,303.9 -194.1,438.1 -44,67.1 -93.8,130.3 -149.7,187.7 -55.9,57.4 -117.6,109.3 -185.2,152.4 -67.6,42.9 -140.6,77.5 -217.1,100.8 -76.5,23.4 -156.4,35.7 -236.4,35.9 -80.1,-0.3 -159.9,-12.7 -236.4,-36.1 -76.5,-23.4 -149.4,-58 -217,-100.9 -67.4,-43.2 -129,-95.1 -184.9,-152.5 -55.7,-57.5 -105.5,-120.7 -149.3,-187.8 -87.73,-134.2 -151.43,-283.4 -193.62,-438 -21.02,-77.3 -36.25,-156.2 -46.56,-235.7 -10.33,-79.5 -15.43,-159.6 -15.61,-239.8 0.24,-80.2 5.38,-160.3 15.77,-239.8 10.36,-79.4 25.64,-158.3 46.71,-235.6 42.3,-154.5 106.11,-303.6 193.91,-437.7 43.8,-67 93.6,-130.1 149.4,-187.5 55.8,-57.3 117.4,-109.2 184.8,-152.2 67.5,-42.9 140.4,-77.2 216.8,-100.6 76.3,-23.5 156.1,-35.9 236,-36.3 79.9,0.3 159.6,12.7 236,36.1 76.4,23.3 149.4,57.6 217,100.4 67.5,43 129.2,94.8 185.1,152.1 55.8,57.4 105.7,120.5 149.7,187.5 87.9,134.1 151.9,283.3 194.4,437.8 42.2,154.8 62.2,315.4 62.6,475.8 z m 21.3,0 c -0.9,-162.2 -21.7,-324.6 -64.9,-481.1 -44.1,-156.1 -110.4,-306.3 -200.5,-441.1 -45.1,-67.4 -96.1,-130.8 -153.2,-188.3 -57,-57.5 -120,-109.1 -188.5,-152.3 -68.5,-43.1 -142.5,-77.6 -219.9,-101 -77.4,-23.4 -158.2,-35.7 -239.1,-35.7 -80.9,0 -161.7,12.1 -239.2,35.5 -77.5,23.3 -151.5,57.8 -220.1,100.8 -68.5,43.2 -131.7,94.8 -188.8,152.2 -57.1,57.5 -108.3,120.9 -153.4,188.3 -90.31,134.8 -156.81,285.1 -201.04,441.3 -21.77,78.2 -37.96,158 -48.68,238.5 -10.66,80.5 -16.02,161.7 -16.38,242.9 0.41,81.2 5.82,162.4 16.53,242.9 10.77,80.5 27.01,160.3 48.84,238.5 44.34,156.1 110.95,306.3 201.33,441 45.1,67.3 96.3,130.6 153.4,188 57.1,57.4 120.2,108.9 188.7,152 68.6,42.9 142.6,77.1 220,100.4 77.3,23.4 158,35.6 238.8,35.7 80.7,-0.2 161.4,-12.4 238.7,-35.9 77.3,-23.4 151.3,-57.6 219.8,-100.6 68.4,-43.1 131.4,-94.7 188.4,-152.1 57.1,-57.4 108.1,-120.7 153.2,-188 90.1,-134.7 156.6,-284.8 200.8,-440.9 43.3,-156.4 64.2,-318.7 65.2,-481"
         style="fill:#ffffff;fill-opacity:1;fill-rule:nonzero;stroke:none"
         id="path500" /><path
         d="m 10853,29781.2 c -75.9,-0.3 -151.8,-11.9 -225.6,-34.5 -71.3,-21.8 -141.3,-54.4 -208.1,-96.8 -61.8,-39.6 -121.9,-89.2 -178.3,-147.2 -52.5,-54.1 -101.3,-115.5 -145,-182.3 -82.2,-125.8 -145.76,-269.7 -188.85,-427.5 -19.8,-72.9 -35.14,-150.6 -45.56,-230.7 -9.98,-76.8 -15.13,-155.9 -15.31,-235.1 0.24,-79.2 5.45,-158.3 15.47,-235 10.43,-80 25.81,-157.6 45.71,-230.7 43.19,-157.7 106.84,-301.4 189.14,-427.2 43.7,-66.7 92.4,-127.9 145,-182.1 56.5,-57.9 116.5,-107.4 178.3,-146.9 66.3,-42 136.3,-74.4 207.8,-96.4 73.7,-22.6 149.5,-34.3 225.5,-34.7 75.8,0.3 151.6,11.9 225.2,34.5 71.8,21.9 141.8,54.3 208.2,96.3 61.7,39.4 121.8,88.8 178.4,146.8 52.7,54.1 101.6,115.3 145.3,182 82.5,125.7 146.3,269.6 189.7,427.4 40.3,147.7 61,304.5 61.3,466.1 -0.3,161.4 -20.8,318.3 -61,466.1 -43.3,157.9 -107,301.8 -189.4,427.7 -43.7,66.7 -92.6,128 -145.3,182.2 -56.4,57.9 -116.5,107.4 -178.6,147 -66.7,42.4 -136.8,74.9 -208.1,96.7 -73.9,22.5 -149.9,34.1 -225.9,34.3 z m 0.1,-2790.4 c -84.1,0 -168.1,12.5 -249.7,37.1 -78.9,23.8 -156,59.1 -229,104.9 -69,43.5 -134.7,96.4 -195.3,157.4 -57.1,57.5 -110.2,122.7 -157.9,193.7 -89.61,133.9 -158.86,285.9 -205.83,451.7 -22.02,79.2 -38.74,161.1 -49.74,243.7 -10.72,80.9 -16.33,164.2 -16.72,247.6 0.45,84 6.11,167.3 16.87,248 11.05,82.7 27.84,164.6 49.85,243.5 47.14,166 116.49,317.9 206.17,451.6 47.6,70.9 100.7,135.9 157.9,193.5 60.7,61 126.4,113.8 195.2,157.1 72.6,45.4 149.6,80.5 228.9,104.5 81.3,24.6 165.2,37.2 249.2,37.2 84.2,-0.1 168.1,-12.7 249.4,-37.5 79.2,-23.9 156.1,-59.1 228.6,-104.6 68.8,-43.3 134.4,-96.2 194.9,-157.2 57.2,-57.6 110.2,-122.7 157.6,-193.5 89.6,-133.9 158.8,-285.7 205.6,-451.3 43.2,-155.8 65.6,-320.9 66.7,-490.9 v -0.4 c -0.9,-169.9 -23.2,-335 -66.3,-490.7 -46.8,-165.9 -115.8,-317.8 -205.4,-451.8 -47.4,-71 -100.5,-136.2 -157.6,-193.7 -60.4,-61 -126,-114 -194.9,-157.5 -73,-45.9 -150,-81.2 -228.9,-105 -81.4,-24.7 -165.4,-37.3 -249.6,-37.4"
         style="fill:#ffffff;fill-opacity:1;fill-rule:nonzero;stroke:none"
         id="path502" /><path
         d="m 9608.99,28980.9 320.18,2.6 320.13,1.5 640.4,1.2 640.3,-1.3 320.2,-1.6 320.1,-2.8 c 0.6,0 1,-0.5 1,-1 0,0 -0.5,-0.9 -1,-0.9 l -320.1,-2.8 -320.2,-1.6 -640.3,-1.3 -640.4,1.2 -320.13,1.4 -320.18,2.6 c -0.76,0 -1.38,0.7 -1.38,0.7 0,1.5 0.63,2.1 1.38,2.1"
         style="fill:#ffffff;fill-opacity:1;fill-rule:nonzero;stroke:none"
         id="path504" /><path
         d="m 10889.8,28936.2 -960.8,2.6 -335.52,2.8 -22.41,22.4 -0.02,16.4 0.85,35.9 36.81,1.4 640.39,4.1 640.5,1.1 960.8,-2.9 356.5,-3.1 1,-74.1 -37.6,-0.9 -640.1,-4.4 -640.4,-1.3"
         style="fill:#ffffff;fill-opacity:1;fill-rule:nonzero;stroke:none"
         id="path506" /><path
         d="m 9980.43,29519.3 c 75.77,1.2 151.57,1.7 227.27,2.6 l 227.3,1.4 c 75.8,0.7 151.6,0.6 227.4,0.8 l 227.3,0.4 454.6,-1.3 227.3,-1.6 c 75.8,-0.9 151.5,-1.5 227.3,-2.8 0.5,0 0.9,-0.4 0.9,-0.4 0,-1.1 -0.4,-1.5 -0.9,-1.5 -75.8,-1.3 -151.5,-1.8 -227.3,-2.8 l -227.3,-1.6 -454.6,-1.3 -227.3,0.4 c -75.8,0.2 -151.6,0.2 -227.4,0.8 l -227.3,1.5 c -75.7,0.8 -151.5,1.4 -227.27,2.6 -0.77,0 -1.39,0.6 -1.38,1.4 0.01,0.7 0.63,1.4 1.38,1.4"
         style="fill:#ffffff;fill-opacity:1;fill-rule:nonzero;stroke:none"
         id="path508" /><path
         d="m 10889.8,29474.5 -286.4,0.5 c -56.2,0.1 -112.4,0.2 -168.6,0.7 l -303.2,2.2 c -50.6,0.5 -101.2,1 -151.75,1.8 l -35.99,0.6 -1.4,74.3 37.39,1.4 c 48.95,0.8 97.95,1.2 146.85,1.7 l 308.1,2.4 c 53.4,0.4 106.8,0.5 160.1,0.6 l 294.7,0.6 765,-3.9 c 48.3,-0.5 96.6,-1 144.9,-1.9 l 37.3,-0.6 -1.7,-73.8 -36.2,-0.9 c -50,-0.9 -100.6,-1.4 -151.2,-1.9 l -303.2,-2.5 -454.7,-1.3"
         style="fill:#ffffff;fill-opacity:1;fill-rule:nonzero;stroke:none"
         id="path510" /><path
         d="m 9497.73,28442.6 347.99,2.6 347.98,1.5 696,1.2 695.9,-1.3 348,-1.7 348,-2.8 c 0.5,0 0.9,-0.4 0.9,-0.9 0,0 -0.4,-0.9 -0.9,-0.9 l -348,-2.8 -348,-1.6 -695.9,-1.3 -696,1.1 -347.98,1.5 -347.99,2.6 c -0.77,0 -1.4,0.6 -1.38,1.4 0,0.8 0.62,1.4 1.38,1.4"
         style="fill:#ffffff;fill-opacity:1;fill-rule:nonzero;stroke:none"
         id="path512" /><path
         d="m 10889.8,28397.8 -1044.24,2.7 -384.39,2.9 -1.39,74.5 37.69,1.4 696.03,4.1 696.1,1.2 1044.2,-2.9 363.4,-2.9 22.1,-22.6 -1.4,-51.7 -36.3,-1 -695.8,-4.4 -696,-1.3"
         style="fill:#ffffff;fill-opacity:1;fill-rule:nonzero;stroke:none"
         id="path514" /><path
         d="m 9608.99,27904.3 320.18,2.6 320.13,1.5 640.4,1.1 640.3,-1.3 320.2,-1.6 320.1,-2.8 c 0.6,0 1,-0.4 1,-0.4 0,-1.1 -0.5,-1.5 -1,-1.5 l -320.1,-2.8 -320.2,-1.6 -640.3,-1.3 -640.4,1.2 -320.13,1.5 -320.18,2.6 c -0.76,0 -1.38,0.6 -1.38,1.4 0,0.8 0.63,1.4 1.38,1.4"
         style="fill:#ffffff;fill-opacity:1;fill-rule:nonzero;stroke:none"
         id="path516" /><path
         d="m 10889.8,27859.5 -960.8,2.7 -335.52,2.7 -22.39,22.4 -0.04,16.4 0.81,35.9 36.83,1.4 640.51,4.1 640.4,1.2 960.8,-2.9 356.5,-3.2 1,-74 -37.6,-1 -640.1,-4.4 -640.4,-1.3"
         style="fill:#ffffff;fill-opacity:1;fill-rule:nonzero;stroke:none"
         id="path518" /><path
         d="m 11844.7,27359.6 h -1818.5 c -2.7,0 -4.9,2.2 -4.9,5 0,2.7 2.2,4.9 4.9,4.9 h 1818.5 c 2.7,0 4.9,-2.2 4.9,-4.9 0,-2.8 -2.2,-5 -4.9,-5"
         style="fill:#ffffff;fill-opacity:1;fill-rule:nonzero;stroke:none"
         id="path520" /><path
         d="m 11844.7,27322.9 h -1818.4 c -22.9,0 -41.54,18.7 -41.54,41.7 0,22.9 18.64,41.6 41.54,41.6 h 1818.4 c 22.9,0 41.5,-18.7 41.5,-41.6 0,-23 -18.6,-41.7 -41.5,-41.7"
         style="fill:#ffffff;fill-opacity:1;fill-rule:nonzero;stroke:none"
         id="path522" /><path
         d="m 10889.6,29788.9 c -752.3,0 -1364.21,-604.7 -1364.21,-1347.8 0,-743.2 611.91,-1347.9 1364.21,-1347.9 752.1,0 1364.1,604.7 1364.1,1347.9 0,743.1 -612,1347.8 -1364.1,1347.8 z m 0,-2826.9 c -824.6,0 -1495.46,663.5 -1495.46,1479.1 0,815.5 670.86,1479 1495.46,1479 824.5,0 1495.4,-663.5 1495.4,-1479 0,-815.6 -670.9,-1479.1 -1495.4,-1479.1"
         style="fill:#ffffff;fill-opacity:1;fill-rule:nonzero;stroke:none"
         id="path524" /><path
         d="m 12327.2,29637.8 h -429.4 v 111.2 l 142.4,201.5 c 39,55.5 65.9,96.7 80.5,123.5 14.6,26.9 25.4,52.6 32.3,77.3 6.9,24.6 10.4,50.1 10.4,76.4 0,30.7 -6.8,53.7 -20.5,69 -13.7,15.3 -31.5,23 -53.4,23 -19.4,0 -37.5,-5.1 -54.3,-15.3 -16.7,-10.3 -37.2,-28.7 -61.3,-55.4 l -83.2,87.7 c 38.3,43.4 73.9,73.2 106.8,89.2 32.8,16.1 68.4,24.1 106.8,24.1 64.6,0 115.1,-18.9 151.4,-56.9 36.3,-38 54.5,-90.8 54.5,-158.3 0,-30.7 -3.3,-59.7 -9.9,-87.1 -6.5,-27.4 -16.5,-54.8 -29.8,-82.4 -13.3,-27.6 -30.1,-56.2 -50.1,-86 -20.1,-29.8 -72,-98 -155.6,-204.6 v -4.4 h 262.4 v -132.5"
         style="fill:#ffffff;fill-opacity:1;fill-rule:nonzero;stroke:none"
         id="path526" /><path
         d="m 12658,29929.2 v 168.7 l 2.7,74.5 3.9,71.2 h -4.4 c -12.8,-39.8 -26.7,-75.8 -41.6,-107.9 l -96.4,-206.5 z m 221.3,-123.3 h -81.1 v -168.1 H 12658 v 168.1 h -261.3 v 121.1 l 242.1,511.5 h 159.4 v -509.3 h 81.1 v -123.3"
         style="fill:#ffffff;fill-opacity:1;fill-rule:nonzero;stroke:none"
         id="path528" /></g></g></svg>
