<?xml version="1.0" encoding="UTF-8" standalone="no"?>
<svg
   xmlns:dc="http://purl.org/dc/elements/1.1/"
   xmlns:cc="http://creativecommons.org/ns#"
   xmlns:rdf="http://www.w3.org/1999/02/22-rdf-syntax-ns#"
   xmlns:svg="http://www.w3.org/2000/svg"
   xmlns="http://www.w3.org/2000/svg"
   viewBox="0 0 666.66669 666.66669"
   height="666.66669"
   width="666.66669"
   xml:space="preserve"
   id="svg2"
   version="1.1"><metadata
     id="metadata8"><rdf:RDF><cc:Work
         rdf:about=""><dc:format>image/svg+xml</dc:format><dc:type
           rdf:resource="http://purl.org/dc/dcmitype/StillImage" /></cc:Work></rdf:RDF></metadata><defs
     id="defs6"><clipPath
       id="clipPath32"
       clipPathUnits="userSpaceOnUse"><path
         id="path30"
         d="M 0,500 H 500 V 0 H 0 Z" /></clipPath><clipPath
       id="clipPath142"
       clipPathUnits="userSpaceOnUse"><path
         id="path140"
         d="M 0,500 H 500 V 0 H 0 Z" /></clipPath><clipPath
       id="clipPath154"
       clipPathUnits="userSpaceOnUse"><path
         id="path152"
         d="M 57.5712,419.613 H 402.684 V 154.431 H 57.5712 Z" /></clipPath><clipPath
       id="clipPath170"
       clipPathUnits="userSpaceOnUse"><path
         id="path168"
         d="M 0,500 H 500 V 0 H 0 Z" /></clipPath><clipPath
       id="clipPath190"
       clipPathUnits="userSpaceOnUse"><path
         id="path188"
         d="M 0,500 H 500 V 0 H 0 Z" /></clipPath><clipPath
       id="clipPath198"
       clipPathUnits="userSpaceOnUse"><path
         id="path196"
         d="M 107.274,374.406 H 257.047 V 146.039 H 107.274 Z" /></clipPath><clipPath
       id="clipPath222"
       clipPathUnits="userSpaceOnUse"><path
         id="path220"
         d="m 152.055,301.989 h 57.964 v -26.044 h -57.964 z" /></clipPath><clipPath
       id="clipPath238"
       clipPathUnits="userSpaceOnUse"><path
         id="path236"
         d="m 165.426,334.874 h 29.387 v -29.369 h -29.387 z" /></clipPath><clipPath
       id="clipPath294"
       clipPathUnits="userSpaceOnUse"><path
         id="path292"
         d="M 0,500 H 500 V 0 H 0 Z" /></clipPath><clipPath
       id="clipPath330"
       clipPathUnits="userSpaceOnUse"><path
         id="path328"
         d="m 300.21,349.14 h 7.41 v -10.76 h -7.41 z" /></clipPath><clipPath
       id="clipPath394"
       clipPathUnits="userSpaceOnUse"><path
         id="path392"
         d="m 322.274,331.207 h 20.92 v -28.62 h -20.92 z" /></clipPath><clipPath
       id="clipPath414"
       clipPathUnits="userSpaceOnUse"><path
         id="path412"
         d="m 322.587,318.642 h 7.956 v -16.057 h -7.956 z" /></clipPath><clipPath
       id="clipPath434"
       clipPathUnits="userSpaceOnUse"><path
         id="path432"
         d="m 288.307,332.843 h 42.86 V 269.86 h -42.86 z" /></clipPath><clipPath
       id="clipPath450"
       clipPathUnits="userSpaceOnUse"><path
         id="path448"
         d="m 288.311,314.362 h 6.982 v -15.53 h -6.982 z" /></clipPath><clipPath
       id="clipPath466"
       clipPathUnits="userSpaceOnUse"><path
         id="path464"
         d="m 301.991,107.228 h 7.397 v -8.396 h -7.397 z" /></clipPath><clipPath
       id="clipPath482"
       clipPathUnits="userSpaceOnUse"><path
         id="path480"
         d="m 347.573,109.368 h 10.439 v -9.309 h -10.439 z" /></clipPath><clipPath
       id="clipPath526"
       clipPathUnits="userSpaceOnUse"><path
         id="path524"
         d="m 307.658,250.779 h 9.915 v -54.005 h -9.915 z" /></clipPath><clipPath
       id="clipPath554"
       clipPathUnits="userSpaceOnUse"><path
         id="path552"
         d="m 279.232,331.867 h 25.406 v -30.004 h -25.406 z" /></clipPath><clipPath
       id="clipPath570"
       clipPathUnits="userSpaceOnUse"><path
         id="path568"
         d="M 0,500 H 500 V 0 H 0 Z" /></clipPath><clipPath
       id="clipPath586"
       clipPathUnits="userSpaceOnUse"><path
         id="path584"
         d="m 340.634,392.302 h 23.722 v -15.12 h -23.722 z" /></clipPath><clipPath
       id="clipPath602"
       clipPathUnits="userSpaceOnUse"><path
         id="path600"
         d="m 328.76,380.286 h 9.738 v -6.207 h -9.738 z" /></clipPath></defs><g
     transform="matrix(1.3333333,0,0,-1.3333333,0,666.66667)"
     id="g10"><path
       id="path12"
       style="fill:#ececec;fill-opacity:1;fill-rule:nonzero;stroke:none"
       d="m 0,117.352 h 500 v 0.249 H 0 Z" /><path
       id="path14"
       style="fill:#ececec;fill-opacity:1;fill-rule:nonzero;stroke:none"
       d="m 290.208,110.542 h 25.459 v 0.25 h -25.459 z" /><path
       id="path16"
       style="fill:#ececec;fill-opacity:1;fill-rule:nonzero;stroke:none"
       d="m 395.112,105.131 h 60.332 v 0.249 h -60.332 z" /><path
       id="path18"
       style="fill:#ececec;fill-opacity:1;fill-rule:nonzero;stroke:none"
       d="m 222.459,110.417 h 62.333 v 0.25 h -62.333 z" /><path
       id="path20"
       style="fill:#ececec;fill-opacity:1;fill-rule:nonzero;stroke:none"
       d="m 169,102.936 h 13.041 v 0.25 H 169 Z" /><path
       id="path22"
       style="fill:#ececec;fill-opacity:1;fill-rule:nonzero;stroke:none"
       d="m 194.708,102.936 h 59.377 v 0.25 h -59.377 z" /><path
       id="path24"
       style="fill:#ececec;fill-opacity:1;fill-rule:nonzero;stroke:none"
       d="m 52.459,107.159 h 38.453 v 0.249 H 52.459 Z" /><g
       id="g26"><g
         clip-path="url(#clipPath32)"
         id="g28"><g
           transform="translate(43.915,444.7974)"
           id="g34"><path
             id="path36"
             style="fill:#ececec;fill-opacity:1;fill-rule:nonzero;stroke:none"
             d="m 0,0 c -3.01,0 -5.458,-2.448 -5.458,-5.458 v -271.431 c 0,-3.01 2.448,-5.458 5.458,-5.458 h 193.099 c 3.008,0 5.457,2.448 5.457,5.458 V -5.458 c 0,3.01 -2.449,5.458 -5.457,5.458 z M 193.099,-282.597 H 0 c -3.147,0 -5.708,2.56 -5.708,5.708 V -5.458 c 0,3.147 2.561,5.708 5.708,5.708 h 193.099 c 3.146,0 5.707,-2.561 5.707,-5.708 v -271.431 c 0,-3.148 -2.561,-5.708 -5.707,-5.708" /></g><g
           transform="translate(260.2119,444.7974)"
           id="g38"><path
             id="path40"
             style="fill:#ececec;fill-opacity:1;fill-rule:nonzero;stroke:none"
             d="m 0,0 c -3.009,0 -5.457,-2.448 -5.457,-5.458 v -271.431 c 0,-3.01 2.448,-5.458 5.457,-5.458 h 193.099 c 3.009,0 5.458,2.448 5.458,5.458 V -5.458 c 0,3.01 -2.449,5.458 -5.458,5.458 z M 193.099,-282.597 H 0 c -3.146,0 -5.707,2.56 -5.707,5.708 V -5.458 c 0,3.147 2.561,5.708 5.707,5.708 h 193.099 c 3.147,0 5.708,-2.561 5.708,-5.708 v -271.431 c 0,-3.148 -2.561,-5.708 -5.708,-5.708" /></g><g
           transform="translate(195.9619,204.3335)"
           id="g42"><path
             id="path44"
             style="fill:#e7e7e7;fill-opacity:1;fill-rule:nonzero;stroke:none"
             d="m 0,0 h -66.401 l -4.031,46.5 h 66.401 z" /></g><g
           transform="translate(199.4014,204.3335)"
           id="g46"><path
             id="path48"
             style="fill:#f0f0f0;fill-opacity:1;fill-rule:nonzero;stroke:none"
             d="m 0,0 h -66.401 l -4.031,46.5 h 66.401 z" /></g><g
           transform="translate(142.0767,214.3188)"
           id="g50"><path
             id="path52"
             style="fill:#ffffff;fill-opacity:1;fill-rule:nonzero;stroke:none"
             d="M 0,0 -2.213,26.529 H 44.216 L 46.429,0 Z" /></g><path
           id="path54"
           style="fill:#e7e7e7;fill-opacity:1;fill-rule:nonzero;stroke:none"
           d="m 210.89,117.604 h -7.791 v 86.73 h 7.791 z" /><path
           id="path56"
           style="fill:#f0f0f0;fill-opacity:1;fill-rule:nonzero;stroke:none"
           d="m 213.349,117.604 h -5.411 v 86.73 h 5.411 z" /><path
           id="path58"
           style="fill:#f0f0f0;fill-opacity:1;fill-rule:nonzero;stroke:none"
           d="m 137.939,194.761 h 75.41 v 9.573 h -75.41 z" /><path
           id="path60"
           style="fill:#e7e7e7;fill-opacity:1;fill-rule:nonzero;stroke:none"
           d="m 140.605,117.604 h -7.791 v 77.157 h 7.791 z" /><path
           id="path62"
           style="fill:#f0f0f0;fill-opacity:1;fill-rule:nonzero;stroke:none"
           d="m 143.064,117.604 h -5.411 v 77.157 h 5.411 z" /><path
           id="path64"
           style="fill:#e7e7e7;fill-opacity:1;fill-rule:nonzero;stroke:none"
           d="m 85.148,117.604 h -7.791 v 77.157 h 7.791 z" /><path
           id="path66"
           style="fill:#f0f0f0;fill-opacity:1;fill-rule:nonzero;stroke:none"
           d="m 87.606,117.604 h -5.411 v 77.157 h 5.411 z" /><path
           id="path68"
           style="fill:#e7e7e7;fill-opacity:1;fill-rule:nonzero;stroke:none"
           d="m 161.586,117.604 h -7.791 v 77.157 h 7.791 z" /><path
           id="path70"
           style="fill:#f0f0f0;fill-opacity:1;fill-rule:nonzero;stroke:none"
           d="m 164.045,117.604 h -5.411 v 77.157 h 5.411 z" /><path
           id="path72"
           style="fill:#e7e7e7;fill-opacity:1;fill-rule:nonzero;stroke:none"
           d="M 137.939,194.761 H 77.357 v 9.573 h 60.582 z" /><path
           id="path74"
           style="fill:#e1e1e1;fill-opacity:1;fill-rule:nonzero;stroke:none"
           d="M 363.839,290.131 H 129.508 v 130.456 h 234.331 z" /><path
           id="path76"
           style="fill:#f5f5f5;fill-opacity:1;fill-rule:nonzero;stroke:none"
           d="M 376.707,290.131 H 130.692 v 130.456 h 246.015 z" /><path
           id="path78"
           style="fill:#ffffff;fill-opacity:1;fill-rule:nonzero;stroke:none"
           d="M 372.687,416.567 H 134.711 V 294.15 h 237.976 z" /><g
           transform="translate(231.0654,294.1499)"
           id="g80"><path
             id="path82"
             style="fill:#f5f5f5;fill-opacity:1;fill-rule:nonzero;stroke:none"
             d="M 0,0 44.93,122.417 H -29.22 L -74.15,0 Z" /></g><g
           transform="translate(302.4404,294.1499)"
           id="g84"><path
             id="path86"
             style="fill:#f5f5f5;fill-opacity:1;fill-rule:nonzero;stroke:none"
             d="M 0,0 44.93,122.417 H -11.006 L -55.936,0 Z" /></g><path
           id="path88"
           style="fill:#e7e7e7;fill-opacity:1;fill-rule:nonzero;stroke:none"
           d="m 438.111,117.602 h -19.919 v 124.595 h 19.919 z" /><g
           transform="translate(432.8735,117.6016)"
           id="g90"><path
             id="path92"
             style="fill:#fafafa;fill-opacity:1;fill-rule:nonzero;stroke:none"
             d="M 0,0 H 5.238 V 9.594 H -5.492 Z" /></g><path
           id="path94"
           style="fill:#e7e7e7;fill-opacity:1;fill-rule:nonzero;stroke:none"
           d="m 254.454,117.602 h -19.919 v 124.595 h 19.919 z" /><path
           id="path96"
           style="fill:#fafafa;fill-opacity:1;fill-rule:nonzero;stroke:none"
           d="M 438.111,120.19 H 249.883 v 122.006 h 188.228 z" /><path
           id="path98"
           style="fill:#e7e7e7;fill-opacity:1;fill-rule:nonzero;stroke:none"
           d="m 254.446,203.831 h 179.102 v 32.458 H 254.446 Z m 180.102,-1 H 253.446 v 34.458 h 181.102 z" /><g
           transform="translate(276.1406,231.9741)"
           id="g100"><path
             id="path102"
             style="fill:#e7e7e7;fill-opacity:1;fill-rule:nonzero;stroke:none"
             d="m 0,0 c 3.384,-6.631 7.984,-10.415 12.704,-10.415 h 113.822 c 4.72,0 9.322,3.784 12.705,10.415 z M 126.526,-11.415 H 12.704 c -5.286,0 -10.375,4.264 -13.96,11.698 L -1.602,1 h 142.435 l -0.346,-0.717 c -3.585,-7.434 -8.674,-11.698 -13.961,-11.698" /></g><g
           transform="translate(255.1206,117.6016)"
           id="g104"><path
             id="path106"
             style="fill:#fafafa;fill-opacity:1;fill-rule:nonzero;stroke:none"
             d="M 0,0 H -5.237 V 9.594 H 5.492 Z" /></g><path
           id="path108"
           style="fill:#e7e7e7;fill-opacity:1;fill-rule:nonzero;stroke:none"
           d="m 254.446,164.964 h 179.102 v 32.458 H 254.446 Z m 180.102,-1 H 253.446 v 34.458 h 181.102 z" /><g
           transform="translate(276.1406,193.1079)"
           id="g110"><path
             id="path112"
             style="fill:#e7e7e7;fill-opacity:1;fill-rule:nonzero;stroke:none"
             d="m 0,0 c 3.384,-6.631 7.984,-10.415 12.704,-10.415 h 113.822 c 4.721,0 9.322,3.784 12.705,10.415 z M 126.526,-11.415 H 12.704 c -5.286,0 -10.375,4.264 -13.96,11.698 L -1.602,1 h 142.435 l -0.346,-0.717 c -3.585,-7.434 -8.674,-11.698 -13.961,-11.698" /></g><path
           id="path114"
           style="fill:#e7e7e7;fill-opacity:1;fill-rule:nonzero;stroke:none"
           d="m 254.446,126.098 h 179.102 v 32.459 H 254.446 Z m 180.102,-1 H 253.446 v 34.459 h 181.102 z" /><g
           transform="translate(276.1406,154.2417)"
           id="g116"><path
             id="path118"
             style="fill:#e7e7e7;fill-opacity:1;fill-rule:nonzero;stroke:none"
             d="m 0,0 c 3.384,-6.631 7.984,-10.415 12.704,-10.415 h 113.822 c 4.721,0 9.322,3.784 12.705,10.415 z M 126.526,-11.415 H 12.704 c -5.286,0 -10.375,4.264 -13.96,11.698 L -1.602,1 h 142.435 l -0.346,-0.717 c -3.585,-7.434 -8.674,-11.698 -13.961,-11.698" /></g><g
           transform="translate(120.9829,225.7168)"
           id="g120"><path
             id="path122"
             style="fill:#e7e7e7;fill-opacity:1;fill-rule:nonzero;stroke:none"
             d="m 0,0 v -2.418 h -1.548 l -1.278,-18.965 h -18.835 l -1.276,18.965 h -1.549 V 0 Z" /></g><g
           transform="translate(114.7837,272.7891)"
           id="g124"><path
             id="path126"
             style="fill:#e7e7e7;fill-opacity:1;fill-rule:nonzero;stroke:none"
             d="m 0,0 c -1.548,11.297 -16.794,14.524 -36.142,14.938 -18.411,0.393 -24.308,6.908 -24.308,6.908 0,0 0.058,-26.379 26.587,-35.93 C -8.672,-23.153 1.551,-11.317 0,0" /></g><g
           transform="translate(105.3784,247.1758)"
           id="g128"><path
             id="path130"
             style="fill:#e7e7e7;fill-opacity:1;fill-rule:nonzero;stroke:none"
             d="m 0,0 c 0.323,4.647 7.742,13.186 25.587,9.304 12.904,-2.806 17.701,3.882 17.701,3.882 0,0 -1.194,-18.879 -20.601,-24.555 C 4.26,-16.759 -0.568,-8.171 0,0" /></g><g
           transform="translate(109.4502,218.5962)"
           id="g132"><path
             id="path134"
             style="fill:#e7e7e7;fill-opacity:1;fill-rule:nonzero;stroke:none"
             d="m 0,0 c 0.195,0 0.39,0.083 0.526,0.244 1.293,1.528 0.235,5.19 -1.23,10.258 -1.879,6.503 -4.218,14.598 -2.237,20.475 1.118,3.318 2.502,6.243 3.839,9.072 2.801,5.925 5.22,11.04 3.203,16.383 C 3.966,56.788 3.569,56.967 3.214,56.833 2.858,56.698 2.679,56.301 2.813,55.946 4.624,51.15 2.431,46.511 -0.346,40.638 -1.638,37.906 -3.102,34.811 -4.246,31.417 -6.364,25.131 -3.958,16.808 -2.026,10.12 -0.886,6.176 0.292,2.099 -0.525,1.133 -0.771,0.842 -0.734,0.408 -0.444,0.163 -0.315,0.053 -0.157,0 0,0" /></g></g></g><g
       id="g136"><g
         clip-path="url(#clipPath142)"
         id="g138"><g
           transform="translate(401.8457,325.6812)"
           id="g144"><path
             id="path146"
             style="fill:#007cff;fill-opacity:1;fill-rule:nonzero;stroke:none"
             d="m 0,0 c -6.792,-54.216 -54.298,-108.35 -106.533,-143.214 -135.042,-90.816 -265.513,63.289 -232.591,118.638 24.713,56.145 101.785,40.721 134.573,62.792 C -20.26,163.14 6.394,45.374 0,0" /></g><g
           id="g148"><g
             id="g150" /><g
             id="g162"><g
               style="opacity:0.89999402"
               id="g160"
               clip-path="url(#clipPath154)"><g
                 id="g158"
                 transform="translate(401.8457,325.6812)"><path
                   id="path156"
                   style="fill:#ffffff;fill-opacity:1;fill-rule:nonzero;stroke:none"
                   d="m 0,0 c -6.792,-54.216 -54.298,-108.35 -106.533,-143.214 -135.042,-90.816 -265.513,63.289 -232.591,118.638 24.713,56.145 101.785,40.721 134.573,62.792 C -20.26,163.14 6.394,45.374 0,0" /></g></g></g></g></g></g><g
       id="g164"><g
         clip-path="url(#clipPath170)"
         id="g166"><g
           transform="translate(443.8892,83.7622)"
           id="g172"><path
             id="path174"
             style="fill:#f5f5f5;fill-opacity:1;fill-rule:nonzero;stroke:none"
             d="m 0,0 c 0,-6.254 -86.807,-11.324 -193.889,-11.324 -107.082,0 -193.889,5.07 -193.889,11.324 0,6.253 86.807,11.323 193.889,11.323 C -86.807,11.323 0,6.253 0,0" /></g></g></g><g
       transform="translate(249.9604,138.9521)"
       id="g176"><path
         id="path178"
         style="fill:#007cff;fill-opacity:1;fill-rule:nonzero;stroke:none"
         d="m 0,0 h -142 l -7.773,228.367 h 142 z" /></g><g
       transform="translate(257.0469,146.0386)"
       id="g180"><path
         id="path182"
         style="fill:#007cff;fill-opacity:1;fill-rule:nonzero;stroke:none"
         d="m 0,0 h -142 l -7.773,228.367 h 142 z" /></g><g
       id="g184"><g
         clip-path="url(#clipPath190)"
         id="g186"><g
           id="g192"><g
             id="g194" /><g
             id="g206"><g
               style="opacity:0.30000299"
               id="g204"
               clip-path="url(#clipPath198)"><g
                 id="g202"
                 transform="translate(257.0469,146.0386)"><path
                   id="path200"
                   style="fill:#ffffff;fill-opacity:1;fill-rule:nonzero;stroke:none"
                   d="m 0,0 h -142 l -7.773,228.367 h 142 z" /></g></g></g></g><g
           transform="translate(220.4468,308.9067)"
           id="g208"><path
             id="path210"
             style="fill:#007cff;fill-opacity:1;fill-rule:nonzero;stroke:none"
             d="m 0,0 c 0.751,-22.06 -16.524,-39.943 -38.584,-39.943 -22.06,0 -40.552,17.883 -41.303,39.943 -0.75,22.06 16.524,39.943 38.584,39.943 C -19.243,39.943 -0.751,22.06 0,0" /></g><g
           transform="translate(213.4687,308.9111)"
           id="g212"><path
             id="path214"
             style="fill:#ffffff;fill-opacity:1;fill-rule:nonzero;stroke:none"
             d="m 0,0 c 0.194,-5.693 -1.068,-11.039 -3.449,-15.703 -5.211,-10.275 -15.863,-17.263 -28.395,-17.263 -12.532,0 -23.659,6.988 -29.57,17.263 -2.698,4.664 -4.324,10.01 -4.518,15.703 -0.619,18.209 13.635,32.966 31.844,32.966 C -15.878,32.966 -0.62,18.209 0,0" /></g><g
           id="g216"><g
             id="g218" /><g
             id="g230"><g
               style="opacity:0.60000598"
               id="g228"
               clip-path="url(#clipPath222)"><g
                 id="g226"
                 transform="translate(210.0195,293.208)"><path
                   id="path224"
                   style="fill:#007cff;fill-opacity:1;fill-rule:nonzero;stroke:none"
                   d="m 0,0 c -5.211,-10.274 -15.862,-17.263 -28.395,-17.263 -12.532,0 -23.659,6.989 -29.569,17.263 8.11,5.544 17.96,8.781 28.683,8.781 C -18.558,8.781 -8.488,5.544 0,0" /></g></g></g></g><g
           id="g232"><g
             id="g234" /><g
             id="g246"><g
               style="opacity:0.60000598"
               id="g244"
               clip-path="url(#clipPath238)"><g
                 id="g242"
                 transform="translate(194.8037,320.1895)"><path
                   id="path240"
                   style="fill:#007cff;fill-opacity:1;fill-rule:nonzero;stroke:none"
                   d="m 0,0 c 0.276,-8.11 -6.074,-14.685 -14.185,-14.685 -8.109,0 -14.908,6.575 -15.184,14.685 -0.276,8.11 6.075,14.685 14.185,14.685 C -7.074,14.685 -0.276,8.11 0,0" /></g></g></g></g><g
           transform="translate(228.5244,228.7388)"
           id="g248"><path
             id="path250"
             style="fill:#ffffff;fill-opacity:1;fill-rule:nonzero;stroke:none"
             d="m 0,0 h -90.584 l -0.613,18 h 90.584 z" /></g><g
           transform="translate(229.6196,196.5659)"
           id="g252"><path
             id="path254"
             style="fill:#ffffff;fill-opacity:1;fill-rule:nonzero;stroke:none"
             d="m 0,0 h -90.585 l -0.613,18 h 90.585 z" /></g><g
           transform="translate(188.3857,197.2725)"
           id="g256"><path
             id="path258"
             style="fill:#007cff;fill-opacity:1;fill-rule:nonzero;stroke:none"
             d="M 0,0 -3.952,-0.537 -4.35,4.184 c -0.84,0.371 -1.45,1.117 -1.622,1.996 -0.28,1.43 0.685,2.755 2.154,2.955 1.462,0.198 2.883,-0.802 3.163,-2.232 0.173,-0.879 -0.12,-1.747 -0.776,-2.322 z m 6.272,14.819 -21.828,-2.968 c -0.897,-0.122 -1.487,-0.939 -1.317,-1.807 l 2.866,-14.627 c 0.172,-0.875 1.042,-1.487 1.939,-1.365 l 21.829,2.969 c 0.896,0.121 1.488,0.933 1.317,1.807 L 8.211,13.455 c -0.17,0.868 -1.042,1.486 -1.939,1.364" /></g><g
           transform="translate(192.5034,212.876)"
           id="g260"><path
             id="path262"
             style="fill:#007cff;fill-opacity:1;fill-rule:nonzero;stroke:none"
             d="M 0,0 V 0 C -0.797,-0.108 -1.567,0.434 -1.72,1.211 L -2,2.643 c -0.773,3.941 -4.541,6.916 -8.62,6.56 -4.36,-0.379 -7.283,-4.23 -6.467,-8.393 l 0.322,-1.645 c 0.152,-0.777 -0.371,-1.495 -1.169,-1.603 -0.797,-0.109 -1.567,0.433 -1.719,1.21 l -0.274,1.395 c -1.076,5.493 2.382,10.772 7.974,11.746 5.881,1.024 11.678,-2.942 12.8,-8.665 L 1.168,1.604 C 1.321,0.827 0.798,0.109 0,0" /></g><g
           transform="translate(214.6665,171.3608)"
           id="g264"><path
             id="path266"
             style="fill:#007cff;fill-opacity:1;fill-rule:nonzero;stroke:none"
             d="m 0,0 h -58.963 l -0.399,11.717 h 58.964 z" /></g><g
           transform="translate(186.2183,237.7388)"
           id="g268"><path
             id="path270"
             style="fill:#1a2e35;fill-opacity:1;fill-rule:nonzero;stroke:none"
             d="m 0,0 c 0.062,-1.818 -1.362,-3.292 -3.181,-3.292 -1.818,0 -3.342,1.474 -3.404,3.292 -0.062,1.818 1.362,3.292 3.18,3.292 C -1.586,3.292 -0.062,1.818 0,0" /></g><g
           transform="translate(172.0449,237.7388)"
           id="g272"><path
             id="path274"
             style="fill:#1a2e35;fill-opacity:1;fill-rule:nonzero;stroke:none"
             d="m 0,0 c 0.062,-1.818 -1.362,-3.292 -3.18,-3.292 -1.819,0 -3.343,1.474 -3.405,3.292 -0.061,1.818 1.362,3.292 3.181,3.292 C -1.586,3.292 -0.062,1.818 0,0" /></g><g
           transform="translate(157.8716,237.7388)"
           id="g276"><path
             id="path278"
             style="fill:#1a2e35;fill-opacity:1;fill-rule:nonzero;stroke:none"
             d="m 0,0 c 0.062,-1.818 -1.362,-3.292 -3.18,-3.292 -1.819,0 -3.342,1.474 -3.404,3.292 -0.062,1.818 1.361,3.292 3.18,3.292 C -1.586,3.292 -0.062,1.818 0,0" /></g><g
           transform="translate(200.3911,237.7388)"
           id="g280"><path
             id="path282"
             style="fill:#1a2e35;fill-opacity:1;fill-rule:nonzero;stroke:none"
             d="m 0,0 c 0.062,-1.818 -1.362,-3.292 -3.18,-3.292 -1.819,0 -3.342,1.474 -3.404,3.292 -0.062,1.818 1.361,3.292 3.18,3.292 C -1.586,3.292 -0.062,1.818 0,0" /></g><g
           transform="translate(214.5645,237.7388)"
           id="g284"><path
             id="path286"
             style="fill:#1a2e35;fill-opacity:1;fill-rule:nonzero;stroke:none"
             d="m 0,0 c 0.062,-1.818 -1.362,-3.292 -3.18,-3.292 -1.819,0 -3.343,1.474 -3.404,3.292 -0.062,1.818 1.361,3.292 3.18,3.292 C -1.586,3.292 -0.062,1.818 0,0" /></g></g></g><g
       id="g288"><g
         clip-path="url(#clipPath294)"
         id="g290"><g
           transform="translate(333.9102,325.7197)"
           id="g296"><path
             id="path298"
             style="fill:#ff8c7b;fill-opacity:1;fill-rule:nonzero;stroke:none"
             d="m 0,0 c 1.333,-2.135 2.436,-4.185 3.579,-6.312 1.139,-2.106 2.17,-4.272 3.18,-6.456 1.989,-4.383 3.769,-8.904 5.099,-13.731 0.178,-0.592 0.314,-1.22 0.463,-1.835 l 0.219,-0.926 0.108,-0.462 0.13,-0.762 c 0.286,-2.032 0.035,-3.689 -0.312,-5.151 -0.717,-2.914 -1.873,-5.238 -3.112,-7.456 -2.528,-4.391 -5.481,-8.131 -8.885,-11.674 l -4.211,3.188 c 2.076,3.94 4.128,8.068 5.637,12.037 0.73,1.974 1.346,3.983 1.526,5.632 0.088,0.811 0.029,1.508 -0.083,1.767 l -0.395,1.223 c -0.164,0.501 -0.31,1 -0.508,1.506 -1.441,4.035 -3.274,8.088 -5.269,12.084 -1.968,3.981 -4.147,8.034 -6.293,11.817 z" /></g><g
           transform="translate(331.2358,275.5747)"
           id="g300"><path
             id="path302"
             style="fill:#ff8c7b;fill-opacity:1;fill-rule:nonzero;stroke:none"
             d="m 0,0 -4.591,-2.438 5.278,-6.18 c 0,0 3.295,2.229 3.443,5.633 z" /></g><g
           transform="translate(320.4658,269.3271)"
           id="g304"><path
             id="path306"
             style="fill:#ff8c7b;fill-opacity:1;fill-rule:nonzero;stroke:none"
             d="M 0,0 5.656,-4.488 11.457,-2.37 6.179,3.81 Z" /></g><g
           transform="translate(301.1509,358.4355)"
           id="g308"><path
             id="path310"
             style="fill:#1a2e35;fill-opacity:1;fill-rule:nonzero;stroke:none"
             d="m 0,0 c -0.113,-0.556 -0.499,-0.947 -0.863,-0.873 -0.363,0.074 -0.566,0.584 -0.453,1.141 0.113,0.555 0.499,0.946 0.862,0.872 C -0.09,1.066 0.113,0.556 0,0" /></g><g
           transform="translate(300.7026,357.4785)"
           id="g312"><path
             id="path314"
             style="fill:#ff5551;fill-opacity:1;fill-rule:nonzero;stroke:none"
             d="m 0,0 c 0,0 -1.916,-2.951 -3.622,-4.215 0.797,-1.118 2.554,-1.038 2.554,-1.038 z" /></g><g
           transform="translate(298.9014,337.8618)"
           id="g316"><path
             id="path318"
             style="fill:#ff8c7b;fill-opacity:1;fill-rule:nonzero;stroke:none"
             d="m 0,0 0.043,6.554 8.68,-1.049 c 0,0 -0.149,-5.636 -4.996,-7.292 z" /></g><g
           transform="translate(301.3955,349.1362)"
           id="g320"><path
             id="path322"
             style="fill:#ff8c7b;fill-opacity:1;fill-rule:nonzero;stroke:none"
             d="m 0,0 6.112,-1.756 0.117,-4.013 -8.68,1.049 z" /></g><g
           id="g324"><g
             id="g326" /><g
             id="g338"><g
               style="opacity:0.19999701"
               id="g336"
               clip-path="url(#clipPath330)"><g
                 id="g334"
                 transform="translate(307.5098,347.3799)"><path
                   id="path332"
                   style="fill:#000000;fill-opacity:1;fill-rule:nonzero;stroke:none"
                   d="M 0,0 -6.11,1.76 -7.3,-0.52 c 0.15,-3.87 2.51,-7.05 5.64,-8.48 1.7,2.23 1.77,4.99 1.77,4.99 z" /></g></g></g></g><g
           transform="translate(303.814,361.1089)"
           id="g340"><path
             id="path342"
             style="fill:#1a2e35;fill-opacity:1;fill-rule:nonzero;stroke:none"
             d="M 0,0 C 0.081,0 0.162,0.029 0.227,0.088 0.361,0.213 0.37,0.424 0.245,0.56 -1.006,1.913 -2.524,1.673 -2.59,1.662 -2.771,1.631 -2.894,1.459 -2.862,1.278 -2.831,1.097 -2.657,0.976 -2.479,1.005 -2.43,1.013 -1.243,1.187 -0.245,0.107 -0.179,0.036 -0.09,0 0,0" /></g><g
           transform="translate(316.5903,348.3169)"
           id="g344"><path
             id="path346"
             style="fill:#ff8c7b;fill-opacity:1;fill-rule:nonzero;stroke:none"
             d="m 0,0 c -1.009,-5.146 -1.618,-12.275 1.982,-15.709 0,0 -1.406,-5.22 -10.967,-5.22 -10.514,0 -5.058,4.581 -5.058,4.581 4.369,1.357 4.332,6.335 3.332,10.333 z" /></g><g
           transform="translate(320.5415,329.1665)"
           id="g348"><path
             id="path350"
             style="fill:#007cff;fill-opacity:1;fill-rule:nonzero;stroke:none"
             d="m 0,0 c 0.937,1.326 0.899,5.516 -0.101,6.254 -1.613,1.194 -8.516,1.468 -17.816,-0.671 1.002,-4.057 -1.142,-6.185 -1.142,-6.185 z" /></g><g
           transform="translate(350.6509,92.8872)"
           id="g352"><path
             id="path354"
             style="fill:#007cff;fill-opacity:1;fill-rule:nonzero;stroke:none"
             d="m 0,0 c -0.072,-0.016 -0.138,-0.037 -0.196,-0.065 -0.132,-0.063 -0.215,-0.156 -0.253,-0.284 -0.089,-0.3 0.022,-0.395 0.059,-0.425 0.378,-0.322 1.782,-0.026 2.772,0.37 C 1.711,-0.167 0.625,0.135 0,0 m 1.145,-1.124 c -0.706,-0.153 -1.412,-0.193 -1.751,0.096 -0.143,0.121 -0.287,0.354 -0.162,0.774 0.066,0.22 0.21,0.385 0.429,0.49 C 0.611,0.689 2.793,-0.2 2.886,-0.238 2.947,-0.264 2.987,-0.322 2.989,-0.388 2.991,-0.453 2.954,-0.514 2.895,-0.542 2.561,-0.704 1.853,-0.971 1.145,-1.124" /></g><g
           transform="translate(351.5181,94.8184)"
           id="g356"><path
             id="path358"
             style="fill:#007cff;fill-opacity:1;fill-rule:nonzero;stroke:none"
             d="M 0,0 C -0.024,-0.005 -0.049,-0.012 -0.073,-0.021 -0.279,-0.092 -0.276,-0.193 -0.275,-0.236 -0.264,-0.708 0.859,-1.656 1.683,-2.04 1.477,-1.478 1.007,-0.369 0.404,-0.062 0.267,0.009 0.134,0.029 0,0 M 1.99,-2.486 C 1.964,-2.492 1.936,-2.491 1.909,-2.483 1.113,-2.251 -0.588,-1.042 -0.608,-0.245 -0.612,-0.1 -0.562,0.162 -0.182,0.294 0.064,0.38 0.312,0.36 0.556,0.235 1.496,-0.245 2.09,-2.193 2.115,-2.276 2.132,-2.334 2.117,-2.397 2.073,-2.441 2.05,-2.464 2.021,-2.48 1.99,-2.486" /></g><g
           transform="translate(298.749,91.9468)"
           id="g360"><path
             id="path362"
             style="fill:#007cff;fill-opacity:1;fill-rule:nonzero;stroke:none"
             d="M 0,0 C -0.117,0 -0.226,-0.012 -0.322,-0.038 -0.476,-0.08 -0.583,-0.156 -0.648,-0.271 -0.766,-0.478 -0.723,-0.581 -0.681,-0.639 -0.354,-1.094 1.424,-1.104 2.732,-0.92 2.08,-0.585 0.822,0 0,0 m 1.115,-1.364 c -0.902,0 -1.774,0.124 -2.066,0.53 -0.103,0.142 -0.183,0.383 0.014,0.728 0.109,0.193 0.288,0.324 0.527,0.39 C 0.761,0.602 3.219,-0.799 3.324,-0.858 3.383,-0.893 3.416,-0.961 3.405,-1.03 3.394,-1.099 3.341,-1.153 3.273,-1.167 2.824,-1.256 1.957,-1.364 1.115,-1.364" /></g><g
           transform="translate(300.2729,93.6284)"
           id="g364"><path
             id="path366"
             style="fill:#007cff;fill-opacity:1;fill-rule:nonzero;stroke:none"
             d="M 0,0 C -0.033,0 -0.066,-0.001 -0.1,-0.005 -0.399,-0.036 -0.419,-0.153 -0.425,-0.192 -0.502,-0.669 0.641,-1.865 1.507,-2.386 1.417,-1.832 1.166,-0.699 0.579,-0.216 0.402,-0.071 0.211,0 0,0 m 1.716,-2.852 c -0.023,0 -0.046,0.005 -0.068,0.016 -0.849,0.38 -2.53,1.901 -2.402,2.697 0.03,0.186 0.163,0.419 0.62,0.466 C 0.208,0.361 0.517,0.265 0.79,0.041 1.685,-0.694 1.875,-2.589 1.882,-2.669 1.888,-2.728 1.862,-2.786 1.813,-2.82 1.785,-2.841 1.75,-2.852 1.716,-2.852" /></g><g
           transform="translate(309.7236,90.9438)"
           id="g368"><path
             id="path370"
             style="fill:#ff8c7b;fill-opacity:1;fill-rule:nonzero;stroke:none"
             d="m 0,0 h -7.034 l -0.7,16.289 H -0.7 Z" /></g><g
           transform="translate(361.3491,94.2002)"
           id="g372"><path
             id="path374"
             style="fill:#ff8c7b;fill-opacity:1;fill-rule:nonzero;stroke:none"
             d="m 0,0 -6.875,-1.488 -6.901,15.171 6.874,1.488 z" /></g><g
           transform="translate(353.814,93.4019)"
           id="g376"><path
             id="path378"
             style="fill:#1a2e35;fill-opacity:1;fill-rule:nonzero;stroke:none"
             d="M 0,0 7.723,1.672 C 8.004,1.733 8.29,1.59 8.41,1.33 l 2.681,-5.817 C 11.369,-5.09 11.001,-5.798 10.349,-5.928 7.643,-6.465 6.299,-6.59 2.902,-7.326 0.813,-7.778 -3.904,-8.927 -6.79,-9.552 c -2.822,-0.611 -3.88,2.147 -2.754,2.661 5.045,2.306 7.154,4.335 8.52,6.227 C -0.778,-0.323 -0.411,-0.089 0,0" /></g><g
           transform="translate(302.7363,91.7583)"
           id="g380"><path
             id="path382"
             style="fill:#1a2e35;fill-opacity:1;fill-rule:nonzero;stroke:none"
             d="M 0,0 H 7.681 C 7.969,0 8.218,-0.2 8.28,-0.48 l 1.389,-6.252 c 0.144,-0.649 -0.348,-1.263 -1.011,-1.252 -2.771,0.047 -6.775,0.21 -10.258,0.21 -4.072,0 -7.589,-0.222 -12.364,-0.222 -2.888,0 -3.689,2.919 -2.481,3.184 5.503,1.203 9.996,1.332 14.751,4.264 C -1.178,-0.229 -0.607,0 0,0" /></g><g
           transform="translate(331.1665,331.0176)"
           id="g384"><path
             id="path386"
             style="fill:#007cff;fill-opacity:1;fill-rule:nonzero;stroke:none"
             d="M 0,0 C 6.593,-1.511 12.028,-18.34 12.028,-18.34 L -1.21,-28.431 c 0,0 -4.859,4.581 -7.022,13 C -10.498,-6.611 -6.74,1.545 0,0" /></g><g
           id="g388"><g
             id="g390" /><g
             id="g402"><g
               style="opacity:0.39999402"
               id="g400"
               clip-path="url(#clipPath394)"><g
                 id="g398"
                 transform="translate(331.1665,331.0176)"><path
                   id="path396"
                   style="fill:#000000;fill-opacity:1;fill-rule:nonzero;stroke:none"
                   d="M 0,0 C 6.593,-1.511 12.028,-18.34 12.028,-18.34 L -1.21,-28.431 c 0,0 -4.859,4.581 -7.022,13 C -10.498,-6.611 -6.74,1.545 0,0" /></g></g></g></g><g
           transform="translate(296.5015,310.9331)"
           id="g404"><path
             id="path406"
             style="fill:#ff8c7b;fill-opacity:1;fill-rule:nonzero;stroke:none"
             d="M 0,0 C -1.645,-1.775 -3.285,-3.354 -4.984,-4.979 -5.828,-5.787 -6.689,-6.58 -7.57,-7.356 l -1.329,-1.163 -0.334,-0.289 c -0.162,-0.139 -0.359,-0.304 -0.57,-0.466 -0.44,-0.325 -0.922,-0.705 -1.932,-1.141 -0.535,-0.206 -1.223,-0.478 -2.432,-0.502 -0.575,-0.009 -1.355,0.09 -2.101,0.373 -0.76,0.281 -1.496,0.769 -2,1.272 -1.046,1.05 -1.363,1.973 -1.568,2.589 -0.191,0.637 -0.247,1.09 -0.286,1.487 -0.063,0.776 -0.023,1.301 0.02,1.788 0.047,0.48 0.113,0.895 0.186,1.287 0.294,1.542 0.71,2.786 1.162,4.031 0.457,1.234 0.962,2.418 1.553,3.614 0.635,1.274 1.248,2.198 1.859,3.264 2.471,4.129 5.371,7.901 8.452,11.457 3.148,3.531 6.452,6.759 10.251,9.717 L 7.042,26.175 C 4.457,22.717 1.915,19.009 -0.435,15.354 -2.782,11.671 -4.959,7.92 -6.833,4.108 -7.266,3.166 -7.798,2.134 -8.098,1.346 -8.449,0.485 -8.771,-0.441 -9.036,-1.351 c -0.262,-0.9 -0.472,-1.838 -0.568,-2.526 -0.021,-0.166 -0.032,-0.311 -0.032,-0.395 -0.003,-0.078 0.017,-0.12 0.008,0.092 -0.011,0.117 -0.021,0.289 -0.129,0.655 -0.122,0.348 -0.312,1.007 -1.154,1.859 -0.407,0.4 -1.017,0.817 -1.648,1.044 -0.611,0.239 -1.251,0.309 -1.684,0.307 -0.925,-0.021 -1.338,-0.21 -1.612,-0.308 -0.49,-0.211 -0.5,-0.269 -0.495,-0.247 l 0.383,0.35 1.201,1.101 2.391,2.239 c 1.582,1.491 3.174,3.081 4.677,4.556 z" /></g><g
           id="g408"><g
             id="g410" /><g
             id="g422"><g
               style="opacity:0.19999701"
               id="g420"
               clip-path="url(#clipPath414)"><g
                 id="g418"
                 transform="translate(325.5166,318.6416)"><path
                   id="path416"
                   style="fill:#000000;fill-opacity:1;fill-rule:nonzero;stroke:none"
                   d="m 0,0 c 3.581,-3.543 4.749,-9.996 5.027,-15.606 l -0.584,-0.451 c 0,0 -4.864,4.587 -7.028,13.003 -0.134,0.526 -0.249,1.053 -0.345,1.57 z" /></g></g></g></g><g
           transform="translate(289.5083,323.9653)"
           id="g424"><path
             id="path426"
             style="fill:#007cff;fill-opacity:1;fill-rule:nonzero;stroke:none"
             d="m 0,0 c -1.437,-7.599 -2.337,-23.204 1.836,-54.105 h 37.622 c 0.259,5.774 -3.37,33.946 2.2,61.157 0,0 -6.448,1.295 -12.594,1.591 C 24.257,8.875 17.298,9.028 13.072,8.642 11.308,8.481 9.577,8.227 8.034,7.954 3.966,7.234 0.768,4.059 0,0" /></g><g
           id="g428"><g
             id="g430" /><g
             id="g442"><g
               style="opacity:0.39999402"
               id="g440"
               clip-path="url(#clipPath434)"><g
                 id="g438"
                 transform="translate(289.5083,323.9653)"><path
                   id="path436"
                   style="fill:#000000;fill-opacity:1;fill-rule:nonzero;stroke:none"
                   d="m 0,0 c -1.437,-7.599 -2.337,-23.204 1.836,-54.105 h 37.622 c 0.259,5.774 -3.37,33.946 2.2,61.157 0,0 -6.448,1.295 -12.594,1.591 C 24.257,8.875 17.298,9.028 13.072,8.642 11.308,8.481 9.577,8.227 8.034,7.954 3.966,7.234 0.768,4.059 0,0" /></g></g></g></g><g
           id="g444"><g
             id="g446" /><g
             id="g458"><g
               style="opacity:0.19999701"
               id="g456"
               clip-path="url(#clipPath450)"><g
                 id="g454"
                 transform="translate(295.2651,312.7339)"><path
                   id="path452"
                   style="fill:#000000;fill-opacity:1;fill-rule:nonzero;stroke:none"
                   d="m 0,0 -6.798,1.628 c -0.21,-4.117 -0.229,-9.22 0.077,-15.53 C -3.59,-10.34 0.402,-4.787 0,0" /></g></g></g></g><g
           id="g460"><g
             id="g462" /><g
             id="g474"><g
               style="opacity:0.19999701"
               id="g472"
               clip-path="url(#clipPath466)"><g
                 id="g470"
                 transform="translate(301.9912,107.228)"><path
                   id="path468"
                   style="fill:#000000;fill-opacity:1;fill-rule:nonzero;stroke:none"
                   d="M 0,0 0.359,-8.396 H 7.396 L 7.037,0 Z" /></g></g></g></g><g
           id="g476"><g
             id="g478" /><g
             id="g490"><g
               style="opacity:0.19999701"
               id="g488"
               clip-path="url(#clipPath482)"><g
                 id="g486"
                 transform="translate(354.4507,109.3682)"><path
                   id="path484"
                   style="fill:#000000;fill-opacity:1;fill-rule:nonzero;stroke:none"
                   d="m 0,0 -6.877,-1.489 3.561,-7.82 6.877,1.489 z" /></g></g></g></g><g
           transform="translate(319.9341,355.8447)"
           id="g492"><path
             id="path494"
             style="fill:#ff8c7b;fill-opacity:1;fill-rule:nonzero;stroke:none"
             d="m 0,0 c -1.807,-6.743 -2.522,-10.781 -6.683,-13.584 -6.259,-4.218 -14.051,0.622 -14.296,7.769 -0.219,6.433 2.773,16.379 10.009,17.737 C -3.841,13.261 1.807,6.743 0,0" /></g><g
           transform="translate(304.1475,355.5864)"
           id="g496"><path
             id="path498"
             style="fill:#1a2e35;fill-opacity:1;fill-rule:nonzero;stroke:none"
             d="M 0,0 C -0.334,0.904 -1.893,7.872 -0.43,9.681 1.033,11.489 17.682,10.188 20.144,7.766 24.228,3.747 21.395,0.16 16.923,-4.468 13.561,-7.948 13.431,-11.871 11.735,-12.447 8.763,-13.456 4.154,-12.507 3.23,-9.335 2.305,-6.162 0,0 0,0" /></g><g
           transform="translate(322.2734,371.2778)"
           id="g500"><path
             id="path502"
             style="fill:#1a2e35;fill-opacity:1;fill-rule:nonzero;stroke:none"
             d="m 0,0 c -5.885,2.505 -16.917,-0.266 -22.875,1.17 -0.212,-3.085 1.649,-8.032 7.606,-9.361 0,0 8.458,-1.649 15,-1.384 C 6.274,-9.309 4.998,-2.127 0,0" /></g><g
           transform="translate(323.1943,363.1387)"
           id="g504"><path
             id="path506"
             style="fill:#1a2e35;fill-opacity:1;fill-rule:nonzero;stroke:none"
             d="M 0,0 C 0,0 3.639,-0.41 6.222,1.195 7.327,-1.464 1.278,-2.194 0,0" /></g><g
           transform="translate(307.3535,355.3091)"
           id="g508"><path
             id="path510"
             style="fill:#ff8c7b;fill-opacity:1;fill-rule:nonzero;stroke:none"
             d="m 0,0 c -0.109,-1.825 -0.956,-3.542 -1.976,-4.666 -1.533,-1.688 -3.133,-0.637 -3.405,1.42 -0.244,1.852 0.258,4.963 2.133,5.895 C -1.4,3.567 0.125,2.087 0,0" /></g><g
           transform="translate(304.6904,269.8599)"
           id="g512"><path
             id="path514"
             style="fill:#007cff;fill-opacity:1;fill-rule:nonzero;stroke:none"
             d="m 0,0 c 0,0 7.982,-53.753 12.365,-73.891 4.799,-22.053 30.531,-95.014 30.531,-95.014 l 12.591,2.726 c 0,0 -17.993,59.458 -22.021,90.288 C 30.372,-52.208 24.276,0 24.276,0 Z" /></g><g
           transform="translate(344.5708,105.1582)"
           id="g516"><path
             id="path518"
             style="fill:#1a2e35;fill-opacity:1;fill-rule:nonzero;stroke:none"
             d="m 0,0 c -0.054,-0.012 2.347,-4.553 2.347,-4.553 l 14.166,3.067 -1.194,4.258 z" /></g><g
           id="g520"><g
             id="g522" /><g
             id="g534"><g
               style="opacity:0.30000299"
               id="g532"
               clip-path="url(#clipPath526)"><g
                 id="g530"
                 transform="translate(309.7354,250.7075)"><path
                   id="path528"
                   style="fill:#000000;fill-opacity:1;fill-rule:nonzero;stroke:none"
                   d="M 0,0 C 9.23,-1.81 8.253,-36.23 7.143,-53.933 4.481,-41.419 0.584,-17.339 -2.078,-0.249 -1.465,0.058 -0.776,0.153 0,0" /></g></g></g></g><g
           transform="translate(291.3447,269.8599)"
           id="g536"><path
             id="path538"
             style="fill:#007cff;fill-opacity:1;fill-rule:nonzero;stroke:none"
             d="m 0,0 c 0,0 -0.969,-52.59 -0.204,-74.04 0.796,-22.31 8.589,-95.362 8.589,-95.362 H 20.3 c 0,0 0.438,71.748 0.968,93.66 C 21.846,-51.855 24.73,0 24.73,0 Z" /></g><g
           transform="translate(297.437,105.2041)"
           id="g540"><path
             id="path542"
             style="fill:#1a2e35;fill-opacity:1;fill-rule:nonzero;stroke:none"
             d="m 0,0 c -0.055,0 0.672,-4.947 0.672,-4.947 h 14.495 l 0.392,4.415 z" /></g><g
           transform="translate(304.2515,321.6577)"
           id="g544"><path
             id="path546"
             style="fill:#007cff;fill-opacity:1;fill-rule:nonzero;stroke:none"
             d="m 0,0 c 3.373,-9.089 -16.441,-19.795 -16.441,-19.795 l -8.579,11.028 c 0,0 5.723,11.391 12.746,16.525 C -3.598,14.101 -2.567,6.919 0,0" /></g><g
           id="g548"><g
             id="g550" /><g
             id="g562"><g
               style="opacity:0.39999402"
               id="g560"
               clip-path="url(#clipPath554)"><g
                 id="g558"
                 transform="translate(304.2515,321.6577)"><path
                   id="path556"
                   style="fill:#000000;fill-opacity:1;fill-rule:nonzero;stroke:none"
                   d="m 0,0 c 3.373,-9.089 -16.441,-19.795 -16.441,-19.795 l -8.579,11.028 c 0,0 5.723,11.391 12.746,16.525 C -3.598,14.101 -2.567,6.919 0,0" /></g></g></g></g></g></g><g
       id="g564"><g
         clip-path="url(#clipPath570)"
         id="g566"><g
           transform="translate(417.9614,413.6665)"
           id="g572"><path
             id="path574"
             style="fill:#007cff;fill-opacity:1;fill-rule:nonzero;stroke:none"
             d="m 0,0 c 0,-12.703 -16.157,-23 -36.087,-23 -19.93,0 -36.087,10.297 -36.087,23 0,12.703 16.157,23 36.087,23 C -16.157,23 0,12.703 0,0" /></g><g
           transform="translate(368.8887,417.5996)"
           id="g576"><path
             id="path578"
             style="fill:#ffffff;fill-opacity:1;fill-rule:nonzero;stroke:none"
             d="m 0,0 c -0.369,0 -0.74,-0.038 -1.11,-0.114 -1.414,-0.292 -2.63,-1.116 -3.423,-2.32 -0.793,-1.205 -1.07,-2.649 -0.778,-4.065 0.292,-1.413 1.117,-2.628 2.324,-3.422 1.206,-0.794 2.649,-1.071 4.062,-0.779 1.416,0.292 2.632,1.118 3.425,2.324 0.792,1.205 1.067,2.647 0.775,4.062 C 4.982,-2.897 4.159,-1.68 2.955,-0.889 2.065,-0.303 1.044,0 0,0 m -0.029,-11.813 c -1.239,0 -2.45,0.36 -3.508,1.056 -1.43,0.941 -2.407,2.381 -2.752,4.056 -0.347,1.678 -0.02,3.389 0.921,4.817 0.94,1.427 2.381,2.404 4.056,2.749 1.678,0.347 3.389,0.021 4.817,-0.918 1.427,-0.939 2.403,-2.381 2.749,-4.059 0.347,-1.676 0.02,-3.385 -0.918,-4.813 -0.94,-1.43 -2.381,-2.408 -4.06,-2.754 -0.434,-0.09 -0.872,-0.134 -1.305,-0.134 M -2.041,3.473 c -4.639,-1.054 -7.754,-5.728 -6.943,-10.42 0.422,-2.454 1.788,-4.577 3.842,-5.977 2.055,-1.401 4.528,-1.896 6.964,-1.393 3.865,0.797 6.762,3.967 7.206,7.887 l 0.041,0.361 8.085,1.669 c 0.467,0.096 0.95,-0.017 1.325,-0.311 0.375,-0.293 0.601,-0.734 0.621,-1.209 l 0.046,-1.137 c 0.01,-0.288 0.215,-0.535 0.475,-0.573 0.891,-0.133 1.659,-0.654 2.11,-1.43 0.111,-0.19 0.32,-0.373 0.588,-0.318 l 0.467,0.096 c 0.265,0.054 0.388,0.307 0.414,0.525 0.15,1.257 1.087,2.274 2.333,2.53 1.242,0.257 2.501,-0.307 3.135,-1.401 0.11,-0.19 0.318,-0.376 0.587,-0.319 l 0.477,0.098 c 0.265,0.055 0.387,0.307 0.412,0.524 0.104,0.891 0.601,1.674 1.364,2.147 0.223,0.139 0.313,0.447 0.21,0.715 L 31.31,-3.4 c -0.171,0.444 -0.138,0.939 0.09,1.357 0.229,0.418 0.627,0.712 1.094,0.808 l 0.609,0.126 c 0.675,0.139 1.248,0.539 1.612,1.125 0.364,0.586 0.468,1.277 0.293,1.948 -0.33,1.258 -1.713,2.054 -3.078,1.77 L 8.061,-1.192 7.881,-0.878 C 5.879,2.617 1.897,4.369 -2.041,3.473 m 1.998,-18.982 c -2.005,0 -3.962,0.6 -5.662,1.759 -2.28,1.553 -3.795,3.909 -4.266,6.633 -0.898,5.207 2.56,10.395 7.709,11.566 C 1.979,5.41 6.284,3.603 8.562,-0.068 l 23.167,4.781 c 1.876,0.388 3.784,-0.732 4.246,-2.496 0.245,-0.939 0.099,-1.907 -0.411,-2.729 -0.51,-0.821 -1.312,-1.381 -2.259,-1.576 l -0.609,-0.126 c -0.181,-0.037 -0.33,-0.147 -0.418,-0.309 -0.088,-0.16 -0.1,-0.349 -0.035,-0.519 l 0.408,-1.062 c 0.278,-0.719 0.019,-1.528 -0.616,-1.923 -0.494,-0.307 -0.83,-0.836 -0.897,-1.414 -0.082,-0.708 -0.555,-1.253 -1.204,-1.387 l -0.477,-0.098 c -0.647,-0.133 -1.297,0.178 -1.654,0.796 -0.418,0.722 -1.248,1.093 -2.069,0.924 -0.823,-0.17 -1.442,-0.841 -1.542,-1.669 -0.085,-0.709 -0.557,-1.253 -1.205,-1.387 l -0.466,-0.096 c -0.641,-0.133 -1.297,0.179 -1.655,0.796 -0.293,0.504 -0.812,0.856 -1.391,0.942 -0.74,0.11 -1.298,0.751 -1.329,1.523 L 18.1,-5.96 c -0.007,0.184 -0.091,0.348 -0.237,0.461 -0.144,0.114 -0.319,0.156 -0.507,0.119 L 9.975,-6.904 c -0.626,-4.183 -3.78,-7.532 -7.952,-8.393 -0.688,-0.142 -1.379,-0.212 -2.066,-0.212" /></g><g
           id="g580"><g
             id="g582" /><g
             id="g594"><g
               style="opacity:0.60000598"
               id="g592"
               clip-path="url(#clipPath586)"><g
                 id="g590"
                 transform="translate(364.3564,384.7422)"><path
                   id="path588"
                   style="fill:#007cff;fill-opacity:1;fill-rule:nonzero;stroke:none"
                   d="m 0,0 c 0,-4.175 -5.311,-7.56 -11.861,-7.56 -6.551,0 -11.861,3.385 -11.861,7.56 0,4.175 5.31,7.56 11.861,7.56 C -5.311,7.56 0,4.175 0,0" /></g></g></g></g><g
           id="g596"><g
             id="g598" /><g
             id="g610"><g
               style="opacity:0.30000299"
               id="g608"
               clip-path="url(#clipPath602)"><g
                 id="g606"
                 transform="translate(338.4976,377.1826)"><path
                   id="path604"
                   style="fill:#007cff;fill-opacity:1;fill-rule:nonzero;stroke:none"
                   d="m 0,0 c 0,-1.714 -2.18,-3.104 -4.869,-3.104 -2.689,0 -4.869,1.39 -4.869,3.104 0,1.714 2.18,3.103 4.869,3.103 C -2.18,3.103 0,1.714 0,0" /></g></g></g></g></g></g></g></svg>